<svg version="1.2" xmlns="http://www.w3.org/2000/svg" viewBox="0 0 543 441" width="543" height="441"><defs><clipPath clipPathUnits="userSpaceOnUse" id="cp1"><path d="m-2224.79-1721.33c0 14.79-19.18 26.78-42.86 26.78-23.65 0-42.85-11.99-42.85-26.78 0-14.8 19.2-26.78 42.85-26.78 23.68 0 42.86 11.98 42.86 26.78z"/></clipPath><clipPath clipPathUnits="userSpaceOnUse" id="cp2"><path d="m-2776.16-1824.85h446.91v25.6h-446.91z"/></clipPath><clipPath clipPathUnits="userSpaceOnUse" id="cp3"><path d="m-2776.16-1226.8h446.91v25.59h-446.91z"/></clipPath><linearGradient id="P" gradientUnits="userSpaceOnUse"/><radialGradient id="g1" cx="-1589.4" cy="-1812.1" r="23.2" href="#P"><stop stop-color="#fff"/><stop offset="1" stop-color="#292929"/></radialGradient><radialGradient id="g2" cx="-1552.1" cy="-1845.3" r="7.6" href="#P"><stop stop-color="#fff"/><stop offset="1" stop-color="#292929"/></radialGradient><linearGradient id="g3" x1="-1293.1" y1="-1634.6" x2="-1280.1" y2="-1651.8" href="#P"><stop offset=".1" stop-color="#2aa9e0"/><stop offset="1" stop-color="#005fad"/></linearGradient><linearGradient id="g4" x1="-1229.5" y1="-1447.2" x2="-1183.5" y2="-1386.1" href="#P"><stop offset=".1" stop-color="#2aa9e0"/><stop offset="1" stop-color="#252165"/></linearGradient><linearGradient id="g5" x1="-1235.5" y1="-1396.4" x2="-1207.8" y2="-1396.4" href="#P"><stop offset=".1" stop-color="#2aa9e0"/><stop offset="1" stop-color="#252165"/></linearGradient><linearGradient id="g6" x1="-1695.1" y1="-1852" x2="-1587.2" y2="-1852" href="#P"><stop stop-color="#00adee"/><stop offset=".9" stop-color="#fff"/></linearGradient><linearGradient id="g7" x1="-1111.1" y1="-1845.8" x2="-1003.2" y2="-1845.8" href="#P"><stop stop-color="#00adee"/><stop offset=".9" stop-color="#fff"/></linearGradient><linearGradient id="g8" x1="-1315.1" y1="-1328.4" x2="-1423" y2="-1328.4" href="#P"><stop stop-color="#00adee"/><stop offset=".9" stop-color="#fff"/></linearGradient><radialGradient id="g9" cx="-884.5" cy="-1467.4" r="43.6" href="#P"><stop stop-color="#d5de21"/><stop offset="1" stop-color="#21a344"/></radialGradient><linearGradient id="g10" x1="-910.4" y1="-1522.8" x2="-859.6" y2="-1522.8" href="#P"><stop stop-color="#00adee"/><stop offset="1" stop-color="#0071bb"/></linearGradient><linearGradient id="g11" x1="-942.2" y1="-1447.7" x2="-942.5" y2="-1429.5" href="#P"><stop stop-color="#00adee"/><stop offset="1" stop-color="#0071bb"/></linearGradient><linearGradient id="g12" x1="-923.6" y1="-1447.4" x2="-923.9" y2="-1429.1" href="#P"><stop stop-color="#00adee"/><stop offset="1" stop-color="#0071bb"/></linearGradient><linearGradient id="g13" x1="-903.9" y1="-1447.1" x2="-904.2" y2="-1428.7" href="#P"><stop stop-color="#00adee"/><stop offset="1" stop-color="#0071bb"/></linearGradient><linearGradient id="g14" x1="-872" y1="-1446.5" x2="-872.3" y2="-1428.3" href="#P"><stop stop-color="#00adee"/><stop offset="1" stop-color="#0071bb"/></linearGradient><linearGradient id="g15" x1="-853.9" y1="-1446.2" x2="-854.2" y2="-1427.9" href="#P"><stop stop-color="#00adee"/><stop offset="1" stop-color="#0071bb"/></linearGradient><linearGradient id="g16" x1="-832.9" y1="-1445.9" x2="-833.2" y2="-1427.6" href="#P"><stop stop-color="#00adee"/><stop offset="1" stop-color="#0071bb"/></linearGradient><linearGradient id="g17" x1="-813.2" y1="-1445.4" x2="-813.5" y2="-1427.2" href="#P"><stop stop-color="#00adee"/><stop offset="1" stop-color="#0071bb"/></linearGradient><radialGradient id="g18" cx="-1255.9" cy="-1732.3" r="6.9" href="#P"><stop stop-color="#a5def8"/><stop offset=".8" stop-color="#0089ce"/></radialGradient><radialGradient id="g19" cx="-1258.1" cy="-1731.7" r="10.6" href="#P"><stop offset=".1" stop-color="#a5def8"/><stop offset=".9" stop-color="#0089ce"/></radialGradient><radialGradient id="g20" cx="-1258.3" cy="-1737.6" r="7.1" href="#P"><stop stop-color="#a5def8"/><stop offset=".7" stop-color="#008dd1"/><stop offset="1" stop-color="#0089ce"/></radialGradient><clipPath clipPathUnits="userSpaceOnUse" id="cp4"><path d="m1215.04-1901.5c0 26.02-33.72 47.09-75.37 47.09-41.58 0-75.34-21.07-75.34-47.09 0-26.02 33.76-47.1 75.34-47.1 41.65 0 75.37 21.08 75.37 47.1z"/></clipPath><clipPath clipPathUnits="userSpaceOnUse" id="cp5"><path d="m364.25 76.93c0 26.03-33.73 47.1-75.38 47.1-41.58 0-75.34-21.07-75.34-47.1 0-26.02 33.76-47.09 75.34-47.09 41.65 0 75.38 21.07 75.38 47.09z"/></clipPath><clipPath clipPathUnits="userSpaceOnUse" id="cp6"><path d="m2212.2-1944.98c0 26.02-33.73 47.09-75.38 47.09-41.58 0-75.34-21.07-75.34-47.09 0-26.02 33.76-47.1 75.34-47.1 41.65 0 75.38 21.08 75.38 47.1z"/></clipPath></defs><style>tspan{white-space:pre}.a{fill:#fefefe}.b{fill:none;stroke:#000}.c{fill:#00adee}.d{fill:#ec1c24}.e{font-size: 10px;fill: #2c2e35;font-weight: bold;font-style: italic;font-family: "Arial"}.f{font-size: 5px;fill: #00b9f2;font-weight: bold;font-style: italic;font-family: "Arial"}.g{font-size: 5px;fill: #ff2e17;font-weight: bold;font-style: italic;font-family: "Arial"}.h{font-size: 5px;line-height: 7px;fill: #4e5056;font-weight: bold;font-style: italic;font-family: "Arial"}.i{font-size: 9px;line-height: 10px;fill: #4e5056;font-weight: bold;font-family: "Gill Sans"}.j{font-size: 8px;line-height: 10px;fill: #4e5056;font-family: "Gill Sans"}.k{font-size: 7px;line-height: 11px;fill: #4e5056;font-family: "Gill Sans"}.l{fill:#4c4c4e}.m{fill:none;stroke:#4c4c4e;stroke-width:4.9}.n{font-size: 6px;line-height: 13px;fill: #06060c;font-weight: bold;font-family: "Arial"}.o{font-size: 37px;line-height: 71px;fill: #ff2e17;font-family: "Astute SSi"}.p{fill:#754c28}.q{fill:#161038}.r{fill:#8d8f92}.s{font-size: 4px;line-height: 5px;fill: #2c2e35;font-weight: 600;font-family: "OpenSans-SemiBold", "Open Sans"}.t{fill:#54622c}.u{fill:url(#g1)}.v{fill:url(#g2)}.w{font-size: 6px;line-height: 5px;fill: #ffffff;font-weight: 700;font-family: "OpenSans-Bold", "Open Sans"}.x{font-size: 3px;line-height: 3px;fill: #ffffff;font-weight: 700;font-family: "OpenSans-Bold", "Open Sans"}.y{fill:none;stroke:#231f20;stroke-width:1.4}.z{fill:#0c799c}.A{font-size: 10px;line-height: 8px;fill: #ffffff;font-weight: 800;font-family: "Arial"}.B{font-size: 8px;line-height: 8px;fill: #ffffff;font-weight: 800;font-family: "Arial"}.C{font-size: 8px;line-height: 8px;fill: #ff2e17;font-weight: 800;font-family: "Arial"}.D{font-size: 3px;line-height: 3px;fill: #ffffff;font-weight: 800;font-family: "Arial"}.E{fill:none;stroke:#fefefe}.F{font-size: 3px;line-height: 3px;fill: #ff2e17;font-weight: 800;font-family: "Arial"}.G{fill:none;stroke:#ec1c24}.H{fill:#fbaf3f}.I{font-size: 4px;line-height: 5px;fill: #2c2e35;font-weight: 800;font-family: "OpenSans-ExtraBold", "Open Sans"}.J{font-size: 4px;line-height: 4px;fill: #2c2e35;font-weight: 800;font-family: "Arial"}.K{fill:#fab160}.L{fill:#007dc4}.M{font-size: 9px;fill: #102694;font-weight: 400;font-family: "Antonio-Regular", "Antonio"}.N{font-size: 6px;fill: #ffffff;font-family: "Antonio Mountbatten SH"}.O{fill:#2e3092;stroke:#2e3092;stroke-width:2}.P{fill:url(#g3)}.Q{fill:#34b449}.R{fill:#2c2b7c}.S{fill:#0089ce}.T{font-size: 16px;fill: #13247e;font-family: "Atlantix Pro SSi"}.U{font-size: 11px;fill: #13247e;font-weight: bold;font-family: "Times New Roman"}.V{fill:none;stroke:#ec1c24;stroke-width:.4}.W{fill:none;stroke:#0089ce}.X{fill:url(#g4)}.Y{fill:url(#g5)}.Z{font-size: 3px;line-height: 3px;fill: #ffffff;font-weight: bold;font-style: italic;font-family: "Arial"}.a0{font-size: 14px;line-height: 3px;fill: #505358;font-family: "Alfonso Whitehead SH"}.a1{fill:#231f20}.a2{font-size: 9px;line-height: 10px;fill: #122589;font-weight: bold;font-style: italic;font-family: "Arial"}.a3{fill:#2d2d87}.a4{font-size: 3px;fill: #122589;font-weight: bold;font-style: italic;font-family: "Times New Roman"}.a5{fill:none;stroke:#2d2d87;stroke-width:2}.a6{fill:url(#g6)}.a7{fill:url(#g7)}.a8{fill:url(#g8)}.a9{fill:none;stroke:#2c2b7c;stroke-width:2}.aa{font-size: 5px;line-height: 5px;fill: #2c2e35;font-weight: 800;font-family: "OpenSans-ExtraBold", "Open Sans"}.ab{font-size: 4px;line-height: 4px;fill: #2c2e35;font-weight: 600;font-family: "OpenSans-SemiBold", "Open Sans"}.ac{fill:url(#g9)}.ad{fill:url(#g10)}.ae{fill:url(#g11)}.af{fill:url(#g12)}.ag{fill:url(#g13)}.ah{fill:url(#g14)}.ai{fill:url(#g15)}.aj{fill:url(#g16)}.ak{fill:url(#g17)}.al{fill:url(#g18)}.am{fill:url(#g19)}.an{fill:url(#g20)}.ao{fill:none;stroke:#231f20;stroke-width:6}.ap{font-size: 13px;fill: #2c2e35;font-weight: bold;font-style: italic;font-family: "Arial"}.aq{font-size: 6px;fill: #00b9f2;font-weight: bold;font-style: italic;font-family: "Arial"}.ar{font-size: 6px;fill: #ff2e17;font-weight: bold;font-style: italic;font-family: "Arial"}.as{font-size: 8px;line-height: 11px;fill: #4e5056;font-family: "Gill Sans"}.at{font-size: 23px;line-height: 22px;fill: #2c2e35;font-family: "Myriad Pro"}.au{font-size: 8px;line-height: 11px;fill: #ffffff;font-family: "Gill Sans"}</style><path class="a" d="m-2042.5-1201.2h-1020.4v-623.6h1020.4z"/><path class="b" d="m-2552.7-1447.8h474.7"/><path class="b" d="m-2552.7-1360.1h474.7"/><path class="c" d="m-2363.7-1654.1c0.3 0.3 1.1 0.9 2.1 1.6 1.5 1 3.6 2.2 6.1 3.2 2.4 1 5.2 1.7 7.9 1.7q0.3 0 0.5 0c0.6 0 1.5-0.3 2.5-0.6 1.4-0.6 3.1-1.4 4.8-2.3 1.7-0.8 3.4-1.7 5-2.2 1-0.3 3.6-1 6.7-1 2 0 4.3 0.3 6.6 1.1 2.8 1.1 5.7 2.3 8.4 3.3 2.6 1 5 1.9 6.7 2.3 1.6 0.4 3.2 0.7 4.9 0.7 1.9 0 3.8-0.4 5.9-1.5 2.1-1 5.1-2.7 8.4-4.1 1.6-0.8 3.3-1.4 4.9-1.9 1.7-0.5 3.3-0.8 4.8-0.8q0.2 0 0.3 0c1.5 0.1 3.1 0.4 4.8 0.9 2.6 0.7 5.4 1.8 8.2 2.9 2.8 1.1 5.6 2.2 8.4 3.1 1.3 0.4 2.7 0.6 4.1 0.6 2.8 0 5.5-0.8 7.7-1.6 1.1-0.5 2.1-1 3-1.4 0.8-0.4 1.5-0.8 2-1.1q0.8-0.4 1.9-0.8c2.4-0.7 5.9-1.2 9.3-1.2 1.9 0 3.7 0.1 5.3 0.5 2.8 0.6 6 1.9 9.1 3 1.5 0.6 3 1.1 4.4 1.5 1.4 0.3 2.7 0.6 3.8 0.6q0.2 0 0.5-0.1c1.3 0 4.2-0.4 7.3-1.5 3.2-1.1 6.6-2.9 9.1-5.6l0.9 0.8c-2.7 2.9-6.3 4.8-9.6 5.9-3.3 1.1-6.2 1.5-7.6 1.6l-0.1-0.6 0.1 0.6q-0.3 0.1-0.6 0.1c-1.3 0-2.6-0.3-4.1-0.7-2.2-0.6-4.5-1.5-6.9-2.3-2.3-0.9-4.6-1.7-6.5-2.1-1.6-0.4-3.3-0.5-5.1-0.5-2.2 0-4.5 0.2-6.4 0.6q-1.4 0.2-2.5 0.6c-0.7 0.2-1.3 0.4-1.7 0.6-0.5 0.3-1.2 0.7-2.1 1.2-2.6 1.3-6.7 3.1-11.2 3.1-1.5 0-3-0.2-4.5-0.7-3.7-1.1-7.6-2.8-11.2-4.2-1.9-0.7-3.6-1.3-5.3-1.8-1.6-0.4-3.2-0.7-4.5-0.8q-0.2 0-0.3 0c-1.3 0-2.9 0.3-4.4 0.8-2.4 0.7-4.9 1.7-7.2 2.9-2.3 1.1-4.3 2.2-5.9 3-2.3 1.2-4.5 1.6-6.5 1.6-1.9 0-3.6-0.4-5.2-0.8-1.8-0.4-4.2-1.3-6.8-2.3-2.7-1-5.6-2.2-8.5-3.3-2.1-0.8-4.2-1-6.1-1-3 0-5.4 0.7-6.3 0.9-2 0.7-4.3 1.9-6.6 3-1.1 0.6-2.2 1.1-3.2 1.5-1 0.4-2 0.7-2.9 0.7q-0.2 0-0.5 0c-3.9 0-7.8-1.4-10.8-2.9-1.5-0.8-2.9-1.6-3.9-2.3-1-0.6-1.8-1.2-2.2-1.6z"/><path class="c" d="m-2363.7-1649.9c0.3 0.3 1.1 0.9 2.1 1.6 1.5 1 3.6 2.2 6.1 3.2 2.4 1 5.2 1.7 7.9 1.7q0.3 0 0.5 0c0.6 0 1.5-0.3 2.5-0.6 1.4-0.6 3.1-1.4 4.8-2.3 1.7-0.8 3.4-1.6 5-2.2 1-0.3 3.6-1 6.7-1 2 0 4.3 0.3 6.6 1.1 2.8 1.1 5.7 2.3 8.4 3.3 2.6 1 5 1.9 6.7 2.3 1.6 0.4 3.2 0.7 4.9 0.7 1.9 0 3.8-0.4 5.9-1.5 2.1-1 5.1-2.7 8.4-4.1 1.6-0.7 3.3-1.4 4.9-1.9 1.7-0.5 3.3-0.8 4.8-0.8q0.2 0 0.3 0c1.5 0.1 3.1 0.4 4.8 0.9 2.6 0.7 5.4 1.8 8.2 2.9 2.8 1.1 5.6 2.3 8.4 3.1 1.3 0.4 2.7 0.6 4.1 0.6 2.8 0 5.5-0.7 7.7-1.6 1.1-0.5 2.1-1 3-1.4 0.8-0.4 1.5-0.8 2-1.1q0.8-0.4 1.9-0.8c2.4-0.7 5.9-1.2 9.3-1.2 1.9 0 3.7 0.1 5.3 0.5 2.8 0.6 6 1.9 9.1 3 1.5 0.6 3 1.1 4.4 1.5 1.4 0.3 2.7 0.6 3.8 0.6q0.2 0 0.5 0c1.3-0.1 4.2-0.5 7.3-1.6 3.2-1.1 6.6-2.9 9.1-5.6l0.9 0.8c-2.7 2.9-6.3 4.8-9.6 5.9-3.3 1.1-6.2 1.6-7.6 1.7q-0.3 0-0.6 0c-1.3 0-2.6-0.3-4.1-0.7-2.1-0.6-4.5-1.4-6.8-2.3-2.4-0.9-4.7-1.7-6.6-2.1-1.6-0.4-3.3-0.5-5.1-0.5-2.2 0-4.5 0.2-6.4 0.6q-1.4 0.3-2.5 0.6c-0.7 0.2-1.3 0.4-1.7 0.7-0.5 0.2-1.2 0.6-2.1 1.1-2.6 1.3-6.7 3.1-11.2 3.1-1.5 0-3-0.2-4.5-0.7-3.7-1.1-7.6-2.8-11.2-4.2-1.9-0.7-3.6-1.3-5.3-1.8-1.6-0.4-3.2-0.7-4.5-0.8q-0.1 0-0.3 0c-1.3 0-2.9 0.3-4.4 0.8-2.4 0.7-4.9 1.8-7.2 2.9-2.3 1.1-4.3 2.2-5.9 3-2.3 1.2-4.5 1.6-6.5 1.6-1.9 0-3.6-0.4-5.2-0.8-1.8-0.4-4.2-1.3-6.8-2.3-2.7-1-5.6-2.2-8.5-3.3-2.1-0.8-4.2-1-6.1-1-3 0-5.4 0.7-6.3 1-2 0.6-4.3 1.9-6.6 3-1.1 0.5-2.2 1-3.2 1.4-1 0.4-2 0.7-2.9 0.7q-0.2 0-0.5 0c-3.9 0-7.8-1.4-10.8-2.9-1.5-0.7-2.9-1.5-3.9-2.2-1-0.7-1.8-1.3-2.2-1.7z"/><path class="c" d="m-2363.7-1645.7c0.3 0.3 1.1 0.9 2.1 1.6 1.5 1 3.6 2.2 6.1 3.2 2.4 1 5.2 1.7 7.9 1.7q0.3 0 0.5 0c0.6 0 1.5-0.2 2.5-0.6 1.4-0.6 3.1-1.4 4.8-2.3 1.7-0.8 3.4-1.6 5-2.2 1-0.3 3.6-1 6.7-1 2.1 0 4.3 0.3 6.6 1.1 2.8 1.1 5.7 2.3 8.4 3.3 2.6 1 5 1.9 6.7 2.3 1.6 0.4 3.2 0.7 4.9 0.7 1.9 0 3.8-0.4 5.9-1.4 2.1-1.1 5.1-2.8 8.4-4.2 1.6-0.7 3.3-1.4 4.9-1.9 1.7-0.5 3.3-0.8 4.8-0.8q0.2 0 0.3 0c1.5 0.1 3.1 0.4 4.8 0.9 2.6 0.7 5.4 1.8 8.2 2.9 2.8 1.1 5.6 2.3 8.4 3.1 1.3 0.4 2.7 0.6 4.1 0.6 2.8 0 5.5-0.7 7.7-1.6 1.1-0.5 2.1-1 3-1.4 0.8-0.4 1.5-0.8 2-1.1q0.8-0.4 1.9-0.8c2.4-0.7 5.9-1.2 9.3-1.2 1.9 0 3.7 0.1 5.3 0.5 2.8 0.6 6 1.9 9.1 3 1.5 0.6 3 1.1 4.4 1.5 1.4 0.4 2.7 0.6 3.8 0.6q0.2 0 0.5 0c1.3-0.1 4.2-0.5 7.3-1.6 3.2-1.1 6.6-2.9 9.1-5.6l0.9 0.8c-2.7 3-6.3 4.8-9.6 5.9-3.3 1.1-6.2 1.6-7.6 1.7l-0.1-0.6 0.1 0.6q-0.3 0-0.6 0c-1.3 0-2.6-0.3-4.1-0.7-2.2-0.6-4.5-1.4-6.9-2.3-2.3-0.9-4.6-1.7-6.5-2.1-1.6-0.4-3.3-0.5-5.1-0.5-2.2 0-4.5 0.2-6.4 0.6q-1.4 0.3-2.5 0.6c-0.7 0.2-1.3 0.4-1.7 0.7-0.5 0.2-1.2 0.6-2.1 1.1-2.6 1.3-6.7 3.1-11.2 3.1-1.5 0-3-0.2-4.5-0.7-3.7-1.1-7.6-2.8-11.2-4.2-1.9-0.7-3.6-1.3-5.3-1.8-1.6-0.4-3.2-0.7-4.5-0.8q-0.1 0-0.3 0c-1.3 0-2.9 0.3-4.4 0.8-2.4 0.7-4.9 1.8-7.2 2.9-2.3 1.1-4.3 2.2-5.9 3-2.3 1.2-4.5 1.6-6.5 1.6-1.9 0-3.6-0.4-5.2-0.8-1.8-0.4-4.2-1.3-6.8-2.3-2.7-1-5.6-2.2-8.5-3.3-2.1-0.7-4.2-1-6.1-1-3 0-5.4 0.7-6.3 1-2 0.6-4.3 1.9-6.6 3-1.1 0.5-2.2 1-3.2 1.4-1 0.4-2 0.7-2.9 0.7q-0.2 0-0.5 0c-3.9 0-7.8-1.4-10.8-2.9-1.5-0.7-2.9-1.5-3.9-2.2-1-0.7-1.8-1.3-2.2-1.7z"/><path class="c" d="m-2363.7-1641.5c0.3 0.3 1.1 0.9 2.1 1.6 1.5 1 3.6 2.2 6.1 3.2 2.4 1 5.2 1.7 7.9 1.7q0.3 0 0.5 0c0.6 0 1.5-0.2 2.5-0.6 1.4-0.5 3.1-1.4 4.8-2.2 1.7-0.9 3.4-1.7 5-2.3 1-0.3 3.6-1 6.7-1 2 0 4.3 0.3 6.6 1.1 2.8 1.1 5.7 2.3 8.4 3.3 2.6 1 5 1.9 6.7 2.3 1.6 0.4 3.2 0.7 4.9 0.7 1.9 0 3.8-0.4 5.9-1.4 2.1-1.1 5.1-2.8 8.4-4.2 1.6-0.7 3.3-1.4 4.9-1.9 1.7-0.4 3.3-0.7 4.8-0.7q0.2 0 0.3 0c1.5 0 3.1 0.3 4.8 0.8 2.6 0.7 5.4 1.8 8.2 2.9 2.8 1.1 5.6 2.3 8.4 3.1 1.3 0.4 2.7 0.6 4.1 0.6 2.8 0 5.5-0.7 7.7-1.6 1.1-0.5 2.1-0.9 3-1.4q1.3-0.7 2-1.1 0.8-0.4 1.9-0.7c2.4-0.7 5.9-1.3 9.3-1.3 1.9 0 3.7 0.2 5.3 0.5 2.8 0.7 6 1.9 9.1 3 1.5 0.6 3 1.1 4.4 1.5 1.4 0.4 2.7 0.6 3.8 0.6q0.2 0 0.5 0c1.3-0.1 4.2-0.5 7.3-1.6 3.2-1.1 6.6-2.9 9.1-5.6l0.9 0.8c-2.7 3-6.3 4.8-9.6 5.9-3.3 1.1-6.2 1.6-7.6 1.7l-0.1-0.6 0.1 0.6q-0.3 0-0.6 0c-1.3 0-2.6-0.3-4.1-0.7-2.2-0.5-4.5-1.4-6.9-2.3-2.3-0.8-4.6-1.7-6.5-2.1-1.6-0.4-3.3-0.5-5.1-0.5-2.2 0-4.5 0.2-6.4 0.6q-1.4 0.3-2.5 0.6c-0.7 0.2-1.3 0.5-1.7 0.7-0.5 0.2-1.2 0.6-2.1 1.1-2.6 1.3-6.7 3.1-11.2 3.1-1.5 0-3-0.2-4.5-0.6-3.7-1.2-7.6-2.9-11.2-4.3-1.9-0.7-3.6-1.3-5.3-1.8-1.6-0.4-3.2-0.7-4.5-0.8q-0.2 0-0.3 0c-1.4 0-2.9 0.3-4.4 0.8-2.4 0.7-4.9 1.8-7.2 2.9-2.3 1.1-4.3 2.3-5.9 3-2.3 1.2-4.5 1.6-6.5 1.6-1.9 0-3.6-0.3-5.2-0.8-1.8-0.4-4.2-1.3-6.8-2.3-2.7-1-5.6-2.2-8.5-3.2-2.1-0.8-4.2-1.1-6.1-1.1-3 0-5.4 0.7-6.3 1-2 0.6-4.3 1.9-6.6 3-1.1 0.5-2.2 1-3.2 1.4-1 0.4-2 0.7-2.9 0.7q-0.2 0-0.5 0c-3.9 0-7.8-1.4-10.8-2.9-1.5-0.7-2.9-1.5-3.9-2.2-1-0.7-1.8-1.3-2.2-1.7z"/><path class="c" d="m-2363.7-1637.3c0.3 0.4 1.1 0.9 2.1 1.6 1.5 1 3.6 2.2 6.1 3.2 2.4 1 5.2 1.7 7.9 1.7q0.3 0 0.5 0c0.6 0 1.5-0.2 2.5-0.6 1.4-0.5 3.1-1.4 4.8-2.2 1.7-0.9 3.4-1.7 5-2.3 1-0.3 3.6-1 6.7-1 2 0 4.3 0.3 6.6 1.1 2.8 1.1 5.7 2.3 8.4 3.3 2.6 1 5 1.9 6.7 2.3 1.6 0.4 3.2 0.7 4.9 0.7 1.9 0 3.8-0.4 5.9-1.4 2.1-1 5.1-2.7 8.4-4.2 1.6-0.7 3.3-1.4 4.9-1.9 1.7-0.4 3.3-0.7 4.8-0.7q0.2 0 0.3 0c1.5 0 3.1 0.3 4.8 0.8 2.6 0.7 5.4 1.8 8.2 2.9 2.8 1.1 5.6 2.3 8.4 3.1 1.3 0.5 2.7 0.6 4.1 0.6 2.8 0 5.5-0.7 7.7-1.6 1.1-0.4 2.1-0.9 3-1.4 0.8-0.4 1.5-0.8 2-1.1q0.8-0.4 1.9-0.7c2.4-0.7 5.9-1.3 9.3-1.3 1.9 0 3.7 0.2 5.3 0.5 2.8 0.7 6 1.9 9.1 3.1 1.5 0.5 3 1 4.4 1.4 1.4 0.4 2.7 0.6 3.8 0.6q0.2 0 0.5 0c1.3-0.1 4.2-0.5 7.3-1.6 3.2-1.1 6.6-2.8 9.1-5.6l0.9 0.8c-2.7 3-6.3 4.8-9.6 5.9-3.3 1.2-6.2 1.6-7.6 1.7l-0.1-0.6 0.1 0.6q-0.3 0-0.6 0c-1.3 0-2.6-0.3-4.1-0.7-2.2-0.5-4.5-1.4-6.9-2.3-2.3-0.8-4.6-1.7-6.5-2.1-1.6-0.3-3.3-0.5-5.1-0.5-2.2 0-4.5 0.2-6.4 0.6q-1.4 0.3-2.5 0.6c-0.7 0.2-1.3 0.5-1.7 0.7-0.5 0.2-1.2 0.6-2.1 1.1-2.6 1.3-6.7 3.1-11.2 3.1-1.5 0-3-0.2-4.5-0.6-3.7-1.2-7.6-2.9-11.2-4.3-1.9-0.7-3.6-1.3-5.3-1.7-1.6-0.5-3.2-0.8-4.5-0.8q-0.1 0-0.3-0.1c-1.3 0-2.9 0.3-4.4 0.8-2.4 0.7-4.9 1.8-7.2 2.9-2.3 1.1-4.3 2.3-5.9 3-2.3 1.2-4.5 1.6-6.5 1.6-1.9 0-3.6-0.3-5.2-0.7-1.8-0.5-4.2-1.4-6.8-2.4-2.7-1-5.6-2.2-8.5-3.2-2.1-0.8-4.2-1.1-6.1-1.1-3 0-5.4 0.7-6.3 1-2 0.6-4.3 1.9-6.6 3-1.1 0.5-2.2 1-3.2 1.4-1 0.4-2 0.7-2.9 0.7q-0.2 0-0.5 0c-3.9 0-7.8-1.3-10.8-2.9-1.5-0.7-2.9-1.5-3.9-2.2-1-0.7-1.8-1.3-2.2-1.7z"/><path fill-rule="evenodd" class="d" d="m-2238.7-1687.6c-27.2 0-51.9 0-51.9 0v30.5h-37.8v-98.5c0 0 80.4 0 89 0 3.9 0 28.1 4.2 32 30.4 3.1 21.8-17.6 37.6-31.3 37.6zm13.9-34.1c0-14.5-19.1-26.3-42.8-26.3-23.6 0-42.7 11.8-42.7 26.3 0 14.6 19.1 26.4 42.7 26.4 23.7 0 42.8-11.8 42.8-26.4z"/><g clip-path="url(#cp1)"><path class="d" d="m-2312.5-1722.5h92.6v2.4h-92.6"/><path class="d" d="m-2266.6-1751.3v60h-2.4v-60"/><path class="d" d="m-2289.6-1746.6q0.2 0.5 0.8 1.1c0.7 0.7 1.8 1.4 3.2 2.2 2.1 1 4.8 2.1 7.9 2.8 3.1 0.8 6.5 1.3 9.9 1.3q0.3 0 0.6 0c4.5 0.1 9.1-1.2 13-2.7 3.9-1.5 7-3.2 8.6-4.2l1.3 2c-1.8 1.1-5 2.9-9 4.4-4.1 1.6-8.9 2.9-13.9 2.9q-0.3 0-0.6 0c-5.5-0.1-10.9-1.3-15.2-2.8-2.2-0.8-4-1.7-5.5-2.7q-1.1-0.7-2-1.5c-0.5-0.6-0.9-1.1-1.2-1.8z"/><path class="d" d="m-2300.6-1739.6l-0.1 0.1 0.1-0.1-0.1 0.1 0.1-0.1c0 0 0 0.1 0.2 0.3q0.3 0.4 1.1 1.1c1.9 1.7 5.6 4.3 10.9 6.6 5.3 2.2 12.2 4 20.6 4 4.9 0 11.2-0.9 17.3-2.9 6.1-2 12.1-5.2 16.3-9.6l1.7 1.7c-4.7 4.8-10.9 8.1-17.3 10.2-6.3 2.1-12.8 3-18 3-10.6 0-19.1-2.8-24.9-5.9-3-1.5-5.3-3-6.9-4.3q-1.2-1-2-1.7-0.3-0.4-0.6-0.6-0.1-0.2-0.2-0.3-0.1-0.1-0.2-0.3z"/><path class="d" d="m-2245.4-1696.6q-0.2-0.4-0.8-1c-0.6-0.7-1.8-1.5-3.1-2.2-2.1-1.1-4.9-2.1-8-2.9-3.1-0.7-6.5-1.2-9.9-1.3q-0.3 0-0.6 0c-4.5 0-9.1 1.2-13 2.7-3.9 1.5-7 3.3-8.6 4.3l-1.3-2.1c1.8-1 5-2.8 9.1-4.4 4-1.6 8.9-2.9 13.8-2.9q0.3 0 0.6 0c5.5 0.2 11 1.3 15.3 2.9 2.1 0.8 4 1.7 5.5 2.7q1.1 0.7 1.9 1.5 0.8 0.8 1.2 1.7z"/><path class="d" d="m-2234.4-1703.6h0.1-0.1 0.1-0.1c0 0 0-0.1-0.2-0.2q-0.3-0.5-1.2-1.2c-1.9-1.7-5.6-4.3-10.9-6.5-5.3-2.3-12.1-4-20.5-4-4.9-0.1-11.2 0.8-17.3 2.9-6.1 2-12 5.1-16.3 9.5l-1.7-1.6c4.7-4.8 10.9-8.1 17.3-10.2 6.3-2.1 12.8-3 18-3 10.7 0 19.1 2.8 25 5.8 2.9 1.5 5.2 3.1 6.8 4.4q1.3 1 2 1.7 0.4 0.3 0.6 0.6 0.1 0.1 0.2 0.3 0.1 0.1 0.2 0.2z"/></g><path fill-rule="evenodd" class="d" d="m-2429.8-1542.1l7.8-55.7h21.5q13.8 0 19.7 4.7 6 4.7 4.6 14.5-1.2 8.3-8.3 13.1-7.1 4.8-18.4 4.8h-4.1l-2.6 18.6zm26.4-43.8l-1.8 12.3q4.7-0.1 7.1-1.5 2.4-1.5 2.8-4.6 0.4-3.1-1.4-4.7-1.9-1.5-5.9-1.5z"/><path fill-rule="evenodd" class="d" d="m-2376.3-1542.1l7.9-55.7h23.2q11.8 0 17.9 4.6 6.1 4.6 5 12.6-0.7 4.8-4.2 8.3-3.5 3.4-9.9 5.5l10.8 24.7h-21.3l-6.1-21.6-3.1 21.6zm26.4-44.1l-1.8 13.2q4.1-0.1 6.2-1.6 2.1-1.6 2.6-5 0.4-3.3-1.1-5-1.6-1.6-5.1-1.6z"/><path fill-rule="evenodd" class="d" d="m-2319.4-1569.9q1.9-13.8 10.1-21.4 8.2-7.6 21-7.6 12.9 0 18.9 7.6 6 7.5 4 21.4-1.9 13.8-10 21.3-8.1 7.6-21 7.6-12.9 0-18.9-7.6-6.1-7.6-4.1-21.3zm20.4-0.4q-1.2 8.7-0.2 11.9 1.1 3.1 4.8 3.1 3.7 0 5.6-3.1 1.9-3.2 3.1-11.9 1.2-8.8 0.2-11.9-1-3.2-4.7-3.2-3.7 0-5.6 3.2-1.9 3.2-3.2 11.9z"/><path class="d" d="m-2263.5-1542.1l7.8-55.7h35.8l-1.9 13.5h-15.6l-1.2 8h13.7l-1.8 13.1h-13.7l-3 21.1z"/><path class="c" d="m-2222.5-1542.1l7.9-55.7h35.9l-1.9 13.5h-15.6l-1 7.1h14l-1.8 13h-14.1l-1.1 7.7h15.6l-2 14.4z"/><path class="c" d="m-2179.5-1542.1l7.8-55.7h20.1l7.1 29.3 4.1-29.3h18.3l-7.8 55.7h-19.9l-7.3-27.9-3.9 27.9z"/><text style="transform:matrix(4,0,0,4,-2549.367,-1495.605)" ><tspan x="0" y="0" class="e" dx="0 1 1 1 1 1 1 1 1 1 1 1 1 1 1 1 1 1" >ENGINEERING L.L.C
</tspan></text><text style="transform:matrix(4,0,0,4,-2552.766,-1470.492)" ><tspan x="0" y="0" class="f" dx="0 3 3 3 3 3 3 3 3 3 3 3 3" >PROFESSIONAL
</tspan></text><text style="transform:matrix(4,0,0,4,-2252.074,-1470.492)" ><tspan x="0" y="0" class="g" dx="0 0 0 0 0 0 0 0 0 0" >ENGINEERS
</tspan></text><text style="transform:matrix(4,0,0,4,-2315.371,-1423.504)" ><tspan x="-54.2" y="0" class="h">ENERGY SAVING SOLUTIONS, VENTILATION,
</tspan><tspan x="-53.7" y="6.5" class="h">MISTING SYSTEM, MACHINERY EQUIPMENT,
</tspan><tspan x="-33.9" y="13" class="h">SWITCHGEAR, MEP WORKS
</tspan></text><text style="transform:matrix(4,0,0,4,-3029.227,-1741.332)" ><tspan x="0" y="0" class="i">Fakhruddin Taiyab
</tspan><tspan x="0" y="10" class="j">Sales &amp; Operations 
</tspan></text><text style="transform:matrix(4,0,0,4,-2992.02,-1589.943)" ><tspan x="0" y="0" class="k">+971 54 792 6812
</tspan><tspan x="0" y="11" class="k">+971  4  320 0869
</tspan><tspan x="0" y="22" class="k">+971  4  285 7894
</tspan><tspan x="0" y="33" class="k">P.O.Box: 181926, </tspan><tspan  y="33" class="k">Dubai-</tspan><tspan  y="33" class="k">UAE
</tspan><tspan x="0" y="44" class="k" dx="0 0 0 0 0 0 0 0 0 0 0 0 0 0 0 0 0 0 0 0" >f.ali@profenuae.com
</tspan><tspan x="0" y="55" class="k">www.promistcool.com
</tspan><tspan x="0" y="66" class="k" dx="0 0 0 0 0 0 0 0 0 0 0 0 0 0 0 0 0 0" >www.profeneng.com
</tspan></text><path class="l" d="m-3022.6-1604c0-1.9 0.8-3.5 2.1-4.8 0.5-0.5 1.2-1.4 2-1.3 0.9 0.1 1.5 1 1.9 1.7 0.7 1.2 1.9 2.9 0.8 4.2-0.5 0.6-1.3 1-1.8 1.6-0.5 0.7-0.2 1.6 0.1 2.3 0.8 1.6 2 3 3.3 4.1 0.6 0.5 1.4 1.1 2.1 1 0.9-0.1 1.5-1.1 2.1-1.6 1.5-1.3 3.2 0.5 4.3 1.5 0.5 0.5 1.1 1.2 1.1 2 0 0.8-1 1.4-1.6 1.9-1.5 1.3-3.3 1.7-5.2 1.3-2-0.4-3.7-1.7-5.3-3.1-1.5-1.5-2.8-3.2-4-5-0.5-0.8-1-1.7-1.3-2.7-0.3-1-0.5-2-0.6-3.1 0-1 0.1 0.6 0 0z"/><path class="m" d="m-2608.3-1383.8v-258.4"/><g style="opacity:.2"><g clip-path="url(#cp2)"><path class="c" d="m-2329.3-1824.3l-25.1 25.1h-396.1l-25.7-25.6z"/></g></g><g style="opacity:.2"><g clip-path="url(#cp3)"><path class="c" d="m-2776.2-1201.2l25.7-25.6h396.1l25.1 25.1z"/></g></g><path fill-rule="evenodd" class="l" d="m-3004.5-1547.4q-9.1 0-18.1 0 0 0 0-0.1 0-2.5 0-5.1-0.1-0.6 0.1-1.2 0.1-0.6 0.4-1.2 0.5-1 1.5-1.5 0.2-0.1 0.5-0.2c0.5-0.1 1-0.2 1.5-0.4 0.2-0.2 0.5-0.3 0.7-0.5q0.3-0.2 0.3-0.6 0-0.7 0-1.4 0 0 0-0.1 0.7 0 1.5 0 0 0.4 0 0.8 2.5 0 5 0 0-0.4 0-0.8 0.8 0 1.6 0 0 0.1 0 0.1 0 0.8 0 1.5 0 0.2 0.1 0.4 0.2 0.2 0.5 0.4c0.4 0.2 0.9 0.4 1.4 0.5q0.3 0.1 0.5 0.1 0.8 0.3 1.3 0.9 0.7 0.7 1 1.6 0.2 0.8 0.2 1.6 0 2.6 0 5.1 0 0.1 0 0.1zm-9.1-1.4c2.3 0 4.3-2 4.2-4.3 0.1-2.2-1.8-4.3-4.2-4.2-2.4-0.1-4.3 1.9-4.3 4.2 0 2.4 2 4.3 4.3 4.3z"/><path class="l" d="m-3013.6-1560.3q-2.9 0-5.9 0-0.1 0-0.2 0.1-0.3 0.1-0.2 0.3 0.1 0.2 0.2 0.4 0.2 0.3 0.4 0.5 0.2 0.2 0.2 0.4 0.1 0.5-0.3 0.7-0.3 0.1-0.7 0.3-1.9 0.6-3.9 1.3-0.3 0.1-0.5 0-0.5-0.2-0.7-0.5-0.3-0.5-0.4-1.1-0.1-0.2 0-0.4c0.1-0.5 0.4-1 0.7-1.4 0.5-0.6 1-1 1.5-1.4 1-0.6 2-1 3.1-1.3q1-0.3 2-0.5 0.7-0.1 1.4-0.2 0.8 0 1.6-0.1 0.9-0.1 1.7-0.1 0.7 0 1.4 0.1 0.5 0 1 0 0.5 0.1 1.1 0.2 0.5 0 1.1 0.1 0.8 0.1 1.7 0.3 1 0.3 2 0.7 1.1 0.5 2.1 1.3 0.6 0.5 1.1 1.1c0.3 0.3 0.5 0.7 0.5 1.2q0.1 0.2 0.1 0.4 0 0.1-0.1 0.3-0.1 0.5-0.4 0.9-0.4 0.5-1.1 0.4 0 0-0.1 0-2.1-0.7-4.3-1.5-0.1 0-0.3-0.1-0.4-0.2-0.3-0.7 0.1-0.2 0.2-0.4 0.3-0.3 0.5-0.7 0.1-0.1 0.2-0.3 0-0.1-0.2-0.2-0.1 0-0.3-0.1-2.9 0-5.9 0z"/><path class="l" d="m-3013.6-1550.7c-1.3 0-2.4-1.1-2.4-2.4 0-1.3 1.1-2.4 2.4-2.4 1.3 0 2.4 1.1 2.4 2.4 0 1.3-1.1 2.4-2.4 2.4z"/><path class="l" d="m-3011.6-1556.4c0.4 0 0.6 0.2 0.6 0.6 0 0.2-0.1 0.3-0.2 0.5-0.1 0.1-0.2 0.1-0.4 0.1-0.2 0-0.3-0.1-0.4-0.2-0.2-0.1-0.2-0.3-0.2-0.4 0-0.3 0.2-0.6 0.6-0.6z"/><path class="l" d="m-3016.1-1552.1c0 0.3-0.3 0.6-0.6 0.6-0.4 0-0.6-0.2-0.6-0.6 0-0.3 0.2-0.6 0.6-0.6 0.3 0 0.6 0.3 0.6 0.6z"/><path class="l" d="m-3016.1-1554.2c0 0.4-0.3 0.7-0.6 0.7-0.4 0-0.6-0.3-0.6-0.6 0-0.4 0.2-0.6 0.6-0.6 0.3 0 0.6 0.2 0.6 0.5z"/><path class="l" d="m-3011.6-1549.8c-0.3 0-0.6-0.3-0.6-0.6 0-0.3 0.3-0.6 0.6-0.6 0.4 0 0.6 0.4 0.6 0.6 0 0.3-0.2 0.6-0.6 0.6z"/><path class="l" d="m-3014.9-1550.4c0 0.2-0.1 0.3-0.2 0.5-0.1 0.1-0.3 0.1-0.4 0.1-0.3 0-0.6-0.2-0.6-0.6 0-0.3 0.3-0.6 0.6-0.6 0.3 0 0.6 0.3 0.6 0.6z"/><path class="l" d="m-3012.9-1549.8c0 0.4-0.3 0.6-0.6 0.6-0.4 0-0.6-0.2-0.6-0.6 0-0.3 0.2-0.6 0.6-0.6 0.3 0 0.6 0.3 0.6 0.6z"/><path class="l" d="m-3014.9-1555.8c0 0.4-0.4 0.6-0.6 0.6-0.3 0-0.6-0.3-0.6-0.6 0-0.3 0.3-0.6 0.6-0.6 0.3 0 0.6 0.2 0.6 0.6z"/><path class="l" d="m-3012.9-1556.4c0 0.3-0.3 0.5-0.6 0.6-0.4 0-0.6-0.3-0.6-0.6 0-0.4 0.2-0.7 0.6-0.7 0.3 0 0.6 0.3 0.6 0.7z"/><path class="l" d="m-3010.3-1553.6c-0.4 0-0.6-0.2-0.6-0.5 0-0.4 0.2-0.6 0.6-0.6 0.3 0 0.6 0.2 0.5 0.5 0 0.4-0.2 0.6-0.5 0.6z"/><path class="l" d="m-3010.9-1552.1c0-0.3 0.2-0.6 0.6-0.6 0.3 0 0.5 0.3 0.5 0.6 0.1 0.3-0.2 0.6-0.5 0.6-0.4 0-0.6-0.2-0.6-0.6z"/><path class="l" d="m-3017-1460c-0.5-1.6-1.1-3.2-1.8-4.7q-0.2-0.6-0.5-1.1-0.2-0.6-0.5-1c-0.5-0.7-1.1-1.1-1.9-1.4 0.1-0.5 0.5-0.8 0.9-0.9 0.6-0.2 1.3 0 1.8 0.2q1 0.6 1.6 1.5c0.2 0.3 0.4 0.7 0.4 1.2 0 2 0 4.1 0 6.2z"/><path class="l" d="m-3024.5-1466.3q0-0.2 0-0.4 0.1-1.1 1.2-1.2c0.7-0.1 1.4 0.2 1.8 0.5 0.6 0.2 1 0.6 1.3 1.1q0.4 0.7 0.8 1.6c0.9 2.2 1.7 4.5 2.5 6.9-1.7-0.8-3.3-1.7-4.9-2.5q-0.2 0-0.4-0.1c-0.1-0.1-0.1-0.3-0.2-0.4q-0.6-1.1-1.2-2.4c-0.4-0.9-0.8-1.9-0.9-3.1z"/><path fill-rule="evenodd" class="l" d="m-3006.9-1474.7q0.2 0 0.4 0 0 0 0 0c1.3 0.1 2.1 0.7 2.9 1.3q0.2 0.3 0.4 0.6 0.3 0.3 0.4 0.7c0.1 0.4 0.1 0.9 0.1 1.4q0 0.2 0 0.3 0 0.1 0 0.2c0 0.4 0 0.7 0 1.1q0 2.1 0 4.2c0 0.3 0 0.7 0 1-0.1 0.6-0.4 1-0.7 1.4q-0.3 0.2-0.7 0.4c-3.5 1.4-7 2.8-10.5 4.2-0.3 0-0.5 0.2-0.8 0.2q-0.1 0-0.2 0c-0.3 0-0.5-0.2-0.7-0.4-0.1-0.3-0.1-0.6-0.1-1 0-2.1 0-4.3 0-6.5 0-0.3 0-0.7 0-1q-0.1-0.4-0.3-0.8-0.4-0.7-1-1.2c-0.3-0.4-0.8-0.7-1.3-0.9-0.4-0.2-1.1-0.4-1.8-0.3 4.2-1.5 8.3-3 12.5-4.5 0.4-0.1 0.8-0.4 1.4-0.4zm-4.9 8.9c0.5-0.2 1-0.3 1.1-0.8 0.1-0.3 0-0.7 0-1q0-0.3 0-0.6c0-0.1 0-0.3 0-0.4-0.1-0.1-0.2-0.2-0.4-0.2-0.1 0-0.3 0.1-0.4 0.2q-1.1 0.3-2.2 0.7c-0.1 0-0.4 0.1-0.6 0.2-0.1 0-0.1 0-0.2 0q-0.1 0.1-0.1 0.2c-0.1 0.1-0.1 0.5-0.1 0.8 0 1.9 0 3.7 0 5.6 0 0.1 0 0.3 0.1 0.4 0.1 0.3 0.5 0.2 0.6 0 0-0.2 0-0.4 0-0.6q0-1.9 0-3.8c0.7-0.3 1.5-0.5 2.2-0.7z"/><path class="l" d="m-3017.7-1428.1q5.1 0 10.3 0 0 0 0.1 0.1 1.3 0 2.6 0c0.4 0 0.8 0.2 1.1 0.4q0.1 0.1 0.1 0.1-5 4.9-10 9.8-5.1-4.9-10.2-9.8 0.1 0 0.1 0c0.3-0.3 0.6-0.4 1-0.5q0.4 0 0.9 0 1.9 0 3.8 0 0.1-0.1 0.2-0.1z"/><path class="l" d="m-3024.8-1425.1q0-0.3 0-0.7c2.1 1.9 4.1 3.9 6.2 5.9q-3 3-6 5.9c-0.1-0.1-0.2-0.3-0.2-0.5q0-1.1 0-2.2 0-0.7 0-1.4 0-0.1 0-0.2 0-3.4 0-6.8z"/><path class="l" d="m-3003.9-1412.5c-0.4 0.2-0.8 0.3-1.2 0.3q-1.4 0-2.8 0-4.5 0-9 0-2.2 0-4.4 0-0.7 0-1.3-0.1c-0.2 0-0.5-0.1-0.7-0.1q0-0.1 0-0.1 3.1-3 6.1-6 0.3 0.2 0.5 0.4 1.1 1.1 2.2 2.1 0.2 0.2 0.5 0.4c0.3 0.2 0.7 0.3 1 0q0.8-0.7 1.7-1.5 0.7-0.7 1.3-1.3 0 0 0.1-0.1 0.1 0.1 0.2 0.2 2 2.1 4 4.1 0.7 0.8 1.5 1.5 0.1 0.1 0.3 0.2z"/><path class="l" d="m-3008.5-1419.9q3-2.9 6.1-5.9 0 0.2 0 0.4 0.1 3.4 0.1 6.9-0.1 1.8-0.1 3.6 0 0.4-0.1 0.7 0 0.1 0 0.1 0 0.2-0.1 0.1-0.3-0.2-0.5-0.4-2-1.9-4-4-0.6-0.7-1.3-1.4-0.1 0-0.1-0.1z"/><path fill-rule="evenodd" class="l" d="m-3020.6-1522.2q7 0 14 0c0.1 2.3 0 4.6 0 6.9 1.2 0.1 2 0.7 2.5 1.4 0.2 0.4 0.4 0.9 0.5 1.4 0 0.6 0 1.3 0 2 0 1.2 0 2.5 0 3.8 0 1.3-0.1 2.5-0.6 3.2-0.3 0.4-0.6 0.6-1.3 0.5 0.1 0.3 0.2 0.6 0.3 0.9 0.3 0.8 0.7 1.7 1 2.6q-9.4 0-18.8 0 0.6-1.7 1.3-3.4c-0.2-0.1-0.5 0-0.7-0.1-0.2-0.1-0.4-0.3-0.6-0.5-0.5-0.7-0.6-1.9-0.6-3.2 0-1.3 0-2.6 0-3.9 0-0.7 0-1.3 0-1.9 0.1-0.5 0.3-1 0.5-1.4 0.5-0.8 1.3-1.3 2.5-1.4q0-3.4 0-6.8 0-0.1 0-0.1zm1.2 1.3q0 2.8 0 5.6 5.8 0 11.6 0 0-2.8 0-5.7-5.8 0-11.5 0-0.1 0.1-0.1 0.1zm14.6 12.8q0-1.1 0-2.1c0-0.8 0-1.5 0-2.2-0.1-0.7-0.6-1.2-1.1-1.5-0.5-0.2-1.2-0.2-2-0.2-3.7 0-7.3 0-10.9 0-0.6 0-1.2 0-1.8 0-0.9 0.1-1.7 0.8-1.7 1.7-0.1 0.7 0 1.4 0 2.1q0 1.1 0 2.2c0 1.5-0.1 3 0.3 3.9q0.4 0 0.7 0c0.2-0.6 0.5-1.2 0.7-1.9q0 0 0 0c0-0.5 0-1 0-1.5 0-0.5 0-1 0-1.5 4.7 0 9.4-0.1 14 0q0 1.6 0 3.1c0 0.1 0.1 0.3 0.2 0.4 0.1 0.5 0.3 1 0.4 1.4q0.4 0 0.8 0c0.5-1 0.4-2.5 0.4-3.9zm-14.6 0.3q0 0.4 0 0.9 5.8 0 11.6 0 0-0.5 0-1-5.8 0-11.5 0-0.1 0-0.1 0.1zm-0.1 2.2q-0.9 2.4-1.7 4.9 7.6 0 15.2 0-0.8-2.5-1.7-5-5.9 0-11.8 0 0 0 0 0.1z"/><path class="l" d="m-3018.3-1519.5c2.9 0 6 0 9 0 0.1 0 0.5-0.1 0.5 0.1 0 0.2-0.4 0.1-0.5 0.1-3 0-6.1 0.1-9.1 0 0.1-0.1 0-0.2 0.1-0.2z"/><path class="l" d="m-3018.3-1518.2c2.9 0 5.9 0 9 0 0.1 0 0.3-0.1 0.4 0 0.1 0 0-0.1 0.1 0 0 0.3-0.3 0.2-0.5 0.2-3 0-6.1 0-9.1 0q0-0.1 0-0.2 0 0 0.1 0z"/><path class="l" d="m-3018.3-1516.7c2.9 0 5.9 0 9 0 0.1 0 0.3 0 0.4 0 0.1 0 0 0 0.1 0.1 0 0.2-0.3 0.1-0.5 0.1-3 0-6.1 0.1-9.1 0q0-0.1 0-0.1 0-0.1 0.1-0.1z"/><path fill-rule="evenodd" class="l" d="m-3020-1513.6q4.7 0 9.4 0 0 1.7 0 3.4-4.7 0-9.5 0 0-1.7 0-3.4 0 0 0.1 0zm0.2 0.3q0 1.4 0 2.9c2.9 0 6 0 9 0q0-1.5 0-3-4.5 0-9 0 0 0 0 0.1z"/><path class="l" d="m-3009.1-1513.5c0 0.3 0 0.7 0 0.9q-0.4 0-0.9 0c0-0.2 0-0.6 0-0.9q0.5 0 0.9 0z"/><path class="l" d="m-3008-1513.5c0 0.3 0.1 0.7 0 0.9q-0.4 0-0.8 0c-0.1-0.2 0-0.6-0.1-0.9q0.5 0 0.9 0z"/><path class="l" d="m-3006.8-1513.5q0 0.5 0 0.9-0.5 0-0.9 0c-0.1-0.2 0-0.6 0-0.9 0.2-0.1 0.6 0 0.9 0z"/><path class="l" d="m-3009.1-1512.4c0 0.3 0 0.7 0 1q-0.4 0-0.9 0c0-0.3 0-0.7 0-1 0.3 0 0.6 0 0.9 0z"/><path class="l" d="m-3008-1512.4c0 0.3 0.1 0.7 0 1q-0.4 0-0.8 0c-0.1-0.3 0-0.7-0.1-1 0.3 0 0.6 0 0.9 0z"/><path class="l" d="m-3006.8-1512.4q0 0.5 0 1-0.5 0-0.9 0c-0.1-0.3 0-0.7 0-1 0.2 0 0.6 0 0.9 0z"/><path class="l" d="m-3009.1-1511.3c0 0.3 0 0.7 0 1-0.3 0-0.6 0-0.9 0q0-0.5 0-1 0.4 0 0.9 0z"/><path class="l" d="m-3008-1511.3q0 0.5 0 1-0.4 0-0.8 0c-0.1-0.3 0-0.6-0.1-0.9 0.3-0.1 0.6 0 0.9-0.1z"/><path class="l" d="m-3006.8-1511.3q0 0.5 0 1-0.5 0-0.9 0c-0.1-0.3 0-0.6 0-0.9 0.2-0.1 0.6 0 0.9-0.1z"/><path fill-rule="evenodd" class="l" d="m-3013.6-1319.4c-6.1 0-11.1-5-11.1-11.1 0-6.1 5-11 11.1-11 6.1 0 11.1 4.9 11.1 11 0 6.1-5 11.1-11.1 11.1zm0-20.4c-5.1 0-9.3 4.2-9.3 9.3 0 5.1 4.2 9.3 9.3 9.3 5.1 0 9.3-4.2 9.3-9.3 0-5.1-4.2-9.3-9.3-9.3z"/><path class="l" d="m-3012.7-1320.4h-1.8v-20.2h1.8z"/><path class="l" d="m-3003.4-1329.6h-20.3v-1.8h20.3z"/><path class="l" d="m-3014.8-1319.7c-0.2-0.1-4.9-3.9-4.9-10.8 0-6.9 4.7-10.7 4.9-10.8l1.1 1.4c0 0-4.2 3.4-4.2 9.4 0 6 4.2 9.4 4.2 9.4z"/><path class="l" d="m-3012.4-1319.7l-1.1-1.4c0.1 0 4.3-3.4 4.3-9.4 0-6-4.2-9.4-4.3-9.4l1.1-1.4c0.2 0.1 4.9 3.9 4.9 10.8 0 6.9-4.7 10.7-4.9 10.8z"/><path class="l" d="m-3013.6-1332.9c-6.7 0-8.6-3.6-8.6-3.7l1.6-0.8-0.8 0.4 0.7-0.4c0.1 0.1 1.6 2.7 7.1 2.7 5.5 0 7-2.6 7.1-2.7l1.6 0.8c-0.1 0.1-2 3.7-8.7 3.7z"/><path class="l" d="m-3020.7-1323.6l-1.5-0.8c0-0.1 1.9-3.7 8.6-3.7 6.7 0 8.6 3.6 8.7 3.7l-1.6 0.8c-0.1-0.1-1.6-2.7-7.1-2.7-5.5 0-7 2.6-7.1 2.7z"/><path fill-rule="evenodd" class="l" d="m-3013.6-1364.2c-6.1 0-11.1-4.9-11.1-11 0-6.1 5-11.1 11.1-11.1 6.1 0 11.1 5 11.1 11.1 0 6.1-5 11-11.1 11zm0-20.3c-5.1 0-9.3 4.2-9.3 9.3 0 5.1 4.2 9.2 9.3 9.2 5.1 0 9.3-4.1 9.3-9.2 0-5.1-4.2-9.3-9.3-9.3z"/><path class="l" d="m-3012.7-1365.1h-1.8v-20.2h1.8z"/><path class="l" d="m-3003.4-1374.3h-20.3v-1.8h20.3z"/><path class="l" d="m-3014.8-1364.4c-0.2-0.2-4.9-3.9-4.9-10.8 0-6.9 4.7-10.7 4.9-10.9l1.1 1.5c0 0-4.2 3.4-4.2 9.4 0 6 4.2 9.4 4.2 9.4z"/><path class="l" d="m-3012.4-1364.4l-1.1-1.4c0.1 0 4.3-3.4 4.3-9.4 0-6.1-4.2-9.4-4.3-9.4l1.1-1.5c0.2 0.2 4.9 4 4.9 10.9 0 6.9-4.7 10.6-4.9 10.8z"/><path class="l" d="m-3013.6-1377.6c-6.7 0-8.6-3.6-8.6-3.8l1.6-0.8-0.8 0.4 0.7-0.4c0.1 0.1 1.6 2.8 7.1 2.8 5.5 0 7-2.7 7.1-2.8l1.6 0.8c-0.1 0.2-2 3.8-8.7 3.8z"/><path class="l" d="m-3020.7-1368.3l-1.5-0.8c0-0.2 1.9-3.8 8.6-3.8 6.7 0 8.6 3.6 8.7 3.8l-1.6 0.8c-0.1-0.1-1.6-2.8-7.1-2.8-5.5 0-7 2.7-7.1 2.8z"/><text style="transform:matrix(4,0,0,4,-2484.4,-1319.43)" ><tspan x="0" y="0" class="n" dx="0 0 0 0 0 0 0 0 0 0 0 0 0 0 0 0 0 0 0 0 0 0 0 0 0 0 0 0 0" >Associate Office: Profen USA
</tspan></text><text style="transform:matrix(4,0,0,4,-9766.713,-6.988)" ><tspan x="-110.8" y="0" class="o" dx="0 2 2 2 2 2 2 2 2" >PRO PURE
</tspan></text><path class="a" d="m-705.8-1278.1h-1020.5v-623.7h1020.5z"/><path class="p" d="m-1252.5-1401.9c0 0 21.1 2.7 18.2-11.4 0 0-6.6-3-18.2 11.4z"/><path class="q" d="m-1108.6-1595h-218.6v-20.1h218.6z"/><path class="r" d="m-1534.9-1503c0-5.3 4.3-9.6 9.6-9.6h99.2c5.3 0 9.6 4.3 9.6 9.6v29.2c0 5.3-4.3 9.7-9.6 9.7h-99.2c-5.3 0-9.6-4.4-9.6-9.7z"/><path class="d" d="m-1564-1574.4v-24.5l61.1-22.9 61.2 20.7v26.7l-61.2 21.2z"/><path class="a" d="m-1488.6-1561.4l-12.3-5.9v-37.9l12.3-7.6 43.7 14.8v21.2z"/><text style="transform:matrix(4,0,0,4,-1547.963,-1756.943)" ><tspan x="-20.1" y="0" class="s">Air Strips   Nozzles &amp; Jets
</tspan><tspan x="-21.7" y="4.9" class="s">Air Amplifiers &amp; Conveyors
</tspan></text><path  d="m-1624.5-1860.7h154.7v82.8h-139.8c0 0-16 0.7-14.9-17.9z"/><path class="t" d="m-1617.3-1860.7h144.5v82.8h-130.6c0 0-14.9 0.7-13.9-17.9z"/><path fill-rule="evenodd" class="u" d="m-1568-1810.8c0 0-10.6 18.9-27.3 20.2 0 0-6.5 1.4-3.7-8.1 0 0-6.7 4.9-10.3 7.1l9.4-9.1c0 0 7.3-21.5 37.2-38.5 0 0-18.9 20.3-27.1 31.1 0 0 9.3-8.4 20-11.2 0 0 8.9-3.5 1.8 8.5zm-3.5-4.1c-2.1-0.5-5.1 1.9-5.1 1.9l-11.9 7.1c-12.9 11.2-1.3 9.3-1.3 9.3 5-0.6 13.4-9.3 13.4-9.3 7.1-7.3 4.9-9 4.9-9z"/><path class="v" d="m-1545.3-1846.8c1.7 2 0 4.1 0 4.1-1.8 1.4-3.3-0.4-3.3-0.4-1.1-5-11.7-1.8-11-2.2 11.2-5.9 14.3-1.5 14.3-1.5z"/><text style="transform:matrix(4,0,0,4,-1539.164,-1797.961)" ><tspan x="0" y="0" class="w" dx="0 0 0 0 0" >BECK
</tspan></text><text style="transform:matrix(4,0,0,4,-1500.928,-1784.588)" ><tspan x="0" y="0" class="x" dx="0 0 0 0" >AIR
</tspan></text><path class="a" d="m-1512.3-1789.1c0 1.9-1.5 3.5-3.5 3.5-2 0-3.6-1.6-3.6-3.5 0-2 1.6-3.6 3.6-3.6 2 0 3.5 1.6 3.5 3.6z"/><path class="a" d="m-1523.7-1788.1c0 1.5-1.2 2.7-2.8 2.7-1.5 0-2.7-1.2-2.7-2.7 0-1.6 1.2-2.8 2.7-2.8 1.6 0 2.8 1.2 2.8 2.8z"/><path class="a" d="m-1533.1-1788.1c0 1.2-1 2.3-2.3 2.3-1.3 0-2.3-1.1-2.3-2.3 0-1.3 1-2.4 2.3-2.4 1.3 0 2.3 1.1 2.3 2.4z"/><path class="y" d="m-1564.1-1755.4v-14.6"/><path class="z" d="m-1624.6-1707.4c0-6.3 5.1-11.4 11.4-11.4h168.6c6.3 0 11.3 5.1 11.3 11.4v15.9c0 6.2-5 11.3-11.3 11.3h-168.6c-6.3 0-11.4-5.1-11.4-11.3z"/><text style="transform:matrix(4,0,0,4,-1617.352,-1684.476)" ><tspan x="0" y="0" class="A" dx="0 0 0 0 0 0 0" >COPPUS
</tspan></text><text style="transform:matrix(4,0,0,4,-1529.215,-1662.994)" ><tspan x="-22.4" y="0" class="s">Portable Air, Water, Electric
</tspan><tspan x="-22.5" y="4.9" class="s">Driven Ventilators and Fans
</tspan></text><text style="transform:matrix(4,0,0,4,-1252.373,-1778.115)" ><tspan x="-19.3" y="0" class="s">KYM Sealing Compound
</tspan></text><text style="transform:matrix(4,0,0,4,-1497.816,-1530.707)" ><tspan x="-30.2" y="0" class="s">ULTIMATE WATER JETTING SOLUTION
</tspan></text><text style="transform:matrix(4,0,0,4,-1476.029,-1428.461)" ><tspan x="-28.2" y="0" class="s">Offshore &amp; Marine Explosion Proof
</tspan><tspan x="-29.6" y="4.9" class="s">Light Fittings, Switches &amp; Equipment
</tspan></text><text style="transform:matrix(4,0,0,4,-1084.055,-1478.445)" ><tspan x="-36.6" y="0" class="s">Innovative Solutions &amp;
</tspan><tspan x="-55.8" y="4.9" class="s">Premium Wear Resistant Products
</tspan></text><text style="transform:matrix(4,0,0,4,-1177.879,-1350.109)" ><tspan x="-22.8" y="0" class="s">Warning Light, Signal Phone
</tspan><tspan x="-15.4" y="4.9" class="s">Signal Tower Lamp
</tspan></text><text style="transform:matrix(4,0,0,4,-1531.531,-1576.105)" ><tspan x="-6.1" y="0" class="B" dx="0 0 0 0" >DEN
</tspan></text><text style="transform:matrix(4,0,0,4,-1471.998,-1576.105)" ><tspan x="-5" y="0" class="C" dx="0 0 0 0" >SIN
</tspan></text><text style="transform:matrix(4,0,0,4,-1441.723,-1703.473)" ><tspan x="-0.8" y="0" class="D" dx="0 0" >R
</tspan></text><path class="E" d="m-1435.8-1707.1c0 3.3-2.6 6-5.9 6-3.3 0-6-2.7-6-6 0-3.2 2.7-5.9 6-5.9 3.3 0 5.9 2.7 5.9 5.9z"/><text style="transform:matrix(4,0,0,4,-1450.811,-1610.801)" ><tspan x="-0.8" y="0" class="F" dx="0 0" >R
</tspan></text><path class="G" d="m-1444.9-1614.4c0 3.3-2.6 6-5.9 6-3.3 0-6-2.7-6-6 0-3.3 2.7-5.9 6-5.9 3.3 0 5.9 2.6 5.9 5.9z"/><path class="d" d="m-1500.9-1584.4v-5.2l4.6 2.6-4.2 2.6"/><path class="a" d="m-1501.4-1584.4l-4.2-2.6 4.7-2.6v5.2"/><path fill-rule="evenodd" class="a" d="m-1501.5-1462.8h-13.9v-25.3h13c0 0 9.2-0.5 8.8 11.1 0 0 0.9 13.5-7.9 14.2zm3-13.4c0.4-6.8-6-6.1-6-6.1h-5.7v13.1h7.5c4.4-0.7 4.2-7 4.2-7z"/><path class="a" d="m-1487.2-1480.1c-0.2 0-5.9 0-5.9 0 0 0-0.7-7.7 5.9-8.3h11.7c0 0 4.4 0.1 4.6 6.1v2.2h-4.6v-2.2h-11.8z"/><path class="a" d="m-1487.3-1468.8h11.8v-2.3h4.6v2.3c-0.2 5.9-4.6 6-4.6 6h-11.7c-6.6-0.6-5.9-8.3-5.9-8.3 0 0 5.7 0 5.9 0z"/><path class="a" d="m-1478.2-1475.7c0 2.9-1.4 5.2-3 5.2-1.6 0-3-2.3-3-5.2 0-2.8 1.4-5.1 3-5.1 1.6 0 3 2.3 3 5.1z"/><path class="a" d="m-1454.4-1480.8v-1.6c0-1.4-2.5-1.2-2.5-1.2h-5.2c-2.7-0.1-2.8 1.7-2.8 1.7v1.8c-0.3 2.7 1.3 2.2 1.3 2.2h9.4c5.2-0.1 4.4 3.8 4.4 3.8v6.3c-1.1 6.3-12 5.4-12 5.4-6.6 0.1-7.1-4.5-7.1-4.5v-4.7h4.7v1.1c-0.1 2.4 1.7 2.1 1.7 2.1h5.3c3.9 0.1 3.4-2.7 3.4-2.7-0.2-2.7-4.2-2.3-4.2-2.3h-5.2c-5.7 0.2-5.9-5-5.9-5v-3.9c-0.5-5.8 5.6-6.1 5.6-6.1h6.4c7.3-0.3 7.3 3.2 7.3 3.2v4.4z"/><path class="a" d="m-1442.8-1462.8h-4.5v-25.6h4.5z"/><path class="a" d="m-1430.8-1483.6h-13.8v-4.8h13.8z"/><path class="a" d="m-1430.8-1473.9h-13.8v-4.8h13.8z"/><path class="a" d="m-1430.6-1462.8h-13.7v-4.8h13.7z"/><path class="H" d="m-1448.7-1475.6c0 0.4-12.2 0.7-27.3 0.7-15.1 0-27.4-0.3-27.4-0.7 0-0.4 12.3-0.7 27.4-0.7 15.1 0 27.3 0.3 27.3 0.7z"/><text style="transform:matrix(4,0,0,4,-1473.713,-1447.316)" ><tspan x="-13.8" y="0" class="I">Power For Ships
</tspan></text><text style="transform:matrix(4,0,0,4,-1469.967,-1332.504)" ><tspan x="-16.2" y="0" class="s">Marine Searchlights
</tspan></text><text style="transform:matrix(4,0,0,4,-1363.695,-1353.953)" ><tspan x="-2.3" y="0" class="J" dx="0 0 0" >UK
</tspan></text><path  d="m-1547.2-1356.7h-12.3v-32.8h27v7h-14.7v6.8h13.6v6.7h-13.6z"/><path  d="m-1519.8-1356.7h-10.5v-25.1h10.5v3c0 0 6.5-5.9 11.6-3v9.6c0 0-11.6-0.3-11.1 7.4z"/><path fill-rule="evenodd" d="m-1480-1369.6v12.9h-10.3v-1.7l-2.6 0.8c0 0-12.7 5.6-15.3-5.3 0 0-1.4-9 17.3-8.4 0 0 3.3-6.7-14.9-2.4v-6.3c0 0 1.8-2.3 8.9-2.6 0 0 17.1-2 16.9 13zm-11.7 5.5c0-1.3-1.1-2.4-2.4-2.4-1.4 0-2.4 1.1-2.4 2.4 0 1.3 1 2.4 2.4 2.4 1.3 0 2.4-1.1 2.4-2.4z"/><path  d="m-1464.8-1356.7h-11.3v-24.9h10.5v3.5c0 0 4-4.8 11-4.6 0 0 8.7-0.4 8.9 10.5v16.1h-11.7v-14.3c0 0 0.3-4-4.1-3.9 0 0-3.7-0.2-3.4 4.9z"/><path  d="m-1417.9-1373.4c-15.8-2.5-15 4-15 4-0.2 8.8 14.6 4.8 14.6 4.8v7.5c-21.9 4.8-25-8-25-8-2.7-9.1 3.7-13.1 3.7-13.1 6.8-5.7 21.3-2.8 21.3-2.8v7.7"/><path  d="m-1405.5-1356.1h-10.4v-25h10.4z"/><path class="K" d="m-1404.6-1389.3c0 3.3-2.8 6.1-6.1 6.1-3.4 0-6.1-2.8-6.1-6.1 0-3.4 2.7-6.1 6.1-6.1 3.3 0 6.1 2.7 6.1 6.1z"/><path  d="m-1387-1375.1c-5.9 1.5-0.7 4.4-0.7 4.4 6.4 3.5 6.3 7.8 6.3 7.8-0.2 7.2-9.5 6.9-9.5 6.9h-10.9v-5.9h4.3c7.1-1.1 0.2-5.3 0.2-5.3-5.9-3.7-5-7.4-5-7.4 1.2-6.3 9.6-6.5 9.6-6.5h9.1v6.5z"/><text style="transform:matrix(4,0,0,4,-1189.758,-1793.656)" ><tspan x="-8.6" y="0" class="J" dx="0 0 0 0 0 0 0 0" >GERMANY
</tspan></text><path  d="m-1335.5-1816h-5.4v-19.2h5.4z"/><path  d="m-1334.4-1841.1c0 2.1-1.7 3.8-3.8 3.8-2.1 0-3.7-1.7-3.7-3.8 0-2.1 1.6-3.7 3.7-3.7 2.1 0 3.8 1.6 3.8 3.7z"/><path  d="m-1330.2-1816c-0.3-0.2-2.5 0-2.5 0v-15.2c0 0-0.2-3.7 2.5-4.6 0 0 3-1.1 5 3.3l3.6 5.8c0 0 0.4 1.3 2.2 1.1 0 0 1.1 0.2 1.3-2.3v-6.5c0 0-0.4-1.6 1.4-1.5 0 0 1.3-0.3 1.3 1.5v16.1c0 0 0.4 2.4-1.9 2.3 0 0-1.7 0-2.4-1.9l-8.6-11.3c0 0-1.7-2.5-2.1 0.1z"/><path  d="m-1300.8-1832.9h-12.8v-3h12.8z"/><path  d="m-1305-1816h-4.8v-18.4h4.8z"/><path  d="m-1289.1-1833.5c-5.8 0-5.5 2.1-5.5 2.1v3.5h7.1v2.7h-7v6.5h8.5c0 0-0.3 2.7 0 2.7 0.2 0-6 0-6 0-6.8 0.2-7-3.9-7-3.9v-11.1c0.3-5 5-4.9 5-4.9h9v2.3z"/><path  d="m-1282.6-1816v-19.9h10c0 0 6.7-0.4 6 6.5 0 0-0.3 3.6-4.2 5.1l4.6 8.3h-4.5l-4.2-6.5h-1.2v-2.7h1.7c0 0 3.6-1.1 2.8-4.9 0 0-0.8-4.6-6.3-2.8v16.9z"/><path  d="m-1212.1-1816v-19.9h10c0 0 6.7-0.4 6 6.5 0 0-0.3 3.6-4.2 5.1l4.7 8.3h-4.5l-4.3-6.5h-1.1v-2.7h1.6c0 0 3.6-1.1 2.8-4.8 0 0-0.7-4.7-6.2-2.9v16.9z"/><path class="L" d="m-1340.9-1807.3v-5.6h71c0 0 4.9 0.7 5.3-4.4v-19.7c0 0-0.3-7 4-8 0 0 6.9-2.3 8.7 10 0 0 0.3 4.6 2.5 4.9 0 0 1.9-0.7 2.8-7.6 0 0 0.3-7.3 6.6-7.4 0 0 6.1-1.1 5.2 12v15.6c0 0-0.6 4.6 5.7 4.6h73.3v5 0.6h-79c0 0-6.5 1.1-6.7-6.7v-22.3c0 0 0.5-10.4-2.8 0.7l-5 14.8c0 0-2.5 6.5-4.7-0.9l-4.7-14.2c0 0-3.3-7.7-3.3-0.4 0.1 7.3 0 0.4 0 0.4v22.3c0 0 0.9 6.3-7.7 6.3z"/><path fill-rule="evenodd" d="m-1215.5-1816h-4.6l-0.7-5.3h-6.7l-2.6 5.3h-2l5.4-16.9c0 0 0.8-3 3.7-3 0 0 3.3-0.4 4.2 4.6zm-5.6-8.1l-1.9-7.3h-2l-2 7.3z"/><path  d="m-1182.1-1833.4c-6-1.9-7 5-7 5-1.3 8.2 1.9 9.6 1.9 9.6 3.8 2.8 8.2-1.2 8.2-1.2h2.3c-1.2 3.2-4.3 3.7-4.3 3.7-5.7 1.4-9.5-1.4-9.5-1.4-6.1-4.7-2.4-13.7-2.4-13.7 3.2-6.4 11.5-4.5 11.5-4.5 4.6 1.9 4.7 5.4 4.7 5.4h-1.5c-0.8-1.6-3.9-2.9-3.9-2.9z"/><path fill-rule="evenodd" d="m-1155.4-1825.8c0 5.5-4.6 9.9-10.4 9.9-5.7 0-10.4-4.4-10.4-9.9 0-5.4 4.7-9.8 10.4-9.8 5.8 0 10.4 4.4 10.4 9.8zm-9.6-7.1c-3-0.4-5.9 2.6-6.5 6.7-0.5 4.2 1.5 7.8 4.5 8.2 3 0.4 5.9-2.6 6.5-6.7 0.5-4.1-1.5-7.8-4.5-8.2z"/><text style="transform:matrix(4,0,0,4,-1235.811,-1690.99)" ><tspan x="-13.2" y="0" class="s">Misting Systems
</tspan></text><text style="transform:matrix(4,0,0,4,-1321.873,-1620.33)" ><tspan x="0" y="0" class="M">PR
</tspan></text><text style="transform:matrix(4,0,0,4,-1320.797,-1599.17)" ><tspan x="0" y="0" class="N" dx="0 2 2 2 2 2 2 2 2 2" >PRE -COOL
</tspan></text><path class="O" d="m-1227.3-1641.9q-0.4-1.1-0.4-2.7 0-3.4 1.8-5.4 1.7-2 6.7-2 6.5 0 7.6 4.4 0.5 1.9 0.5 4.7v1.9h-5v-2.1q0-3-0.4-4-0.4-1.1-1-1.4-0.7-0.3-1.7-0.3-1.9 0-2.7 0.9-0.8 1-0.8 2.9 0 1.9 0.7 2.8 0.8 0.9 1.9 1.7 1.1 0.8 1.2 0.9l3 2.3q5.5 4 5.5 9 0 4-1.8 6.2-1.8 2.1-6.7 2.1-6 0-7.7-3.7-0.9-2.1-0.9-5.5 0-0.1 0-0.2v-3h5.1v3.2q0 3.4 0.7 4.7 0.7 1.4 2.6 1.4 1.9 0 2.6-0.6 0.7-0.7 0.9-2 0.1-1.3 0.1-2.9 0-3.2-4.1-6.1l-2.9-2q-3.8-2.8-4.8-5.2z"/><path class="O" d="m-1204.1-1651.9h5.2v7.7q0.5-1.2 2.2-2.2 1.6-0.9 4.2-0.9 2.5 0 4.1 1.4 1.5 1.5 1.5 4.3v21.3h-5.1v-21q0-2.9-3.1-2.9-1.7 0-2.7 0.9-1.1 0.8-1.1 2.5v20.5h-5.2z"/><path class="O" d="m-1179.3-1656.8h5.1v3.4h-5.1zm0 9.8h5.1v26.6h-5.1z"/><path fill-rule="evenodd" class="O" d="m-1166.9-1638.7q0-5.1 2.5-7 2-1.6 6-1.6 5.6 0 7.1 3.5 0.8 1.9 0.8 5.2v5.1h-11.3v5.3q0 3.5 0.8 4.3 0.8 0.9 2.5 0.9 1.7 0 2.2-1 0.6-1 0.6-2.2 0-1.2 0-2v-2.1h5.1v1.1q0 4.3-0.8 6-0.9 1.7-2.6 2.4-1.7 0.8-4.2 0.8-2.6 0-4.1-0.5-1.5-0.4-2.4-1.2-0.9-0.7-1.6-2.3-0.6-1.7-0.6-5.3zm11.2-0.7q0-2.8-0.2-3.4-0.3-0.6-0.8-1-0.4-0.5-1.6-0.5-2.3 0-2.9 1.4-0.6 1.3-0.6 3.6v3.3h6.1z"/><path class="O" d="m-1143.5-1651.9h5.2v31.6h-5.2z"/><path fill-rule="evenodd" class="O" d="m-1119.4-1651.9h5.1v31.6h-5.1v-2.3q-1.5 2.5-5.2 2.5-5.2 0-6.2-4.8-0.3-1.7-0.3-4v-10q0-4.8 2.3-6.8 1.7-1.6 4.9-1.6 1.4 0 2.6 0.6 1.2 0.6 1.9 1.5zm0 13q0-2.9-0.7-4.1-0.7-1.2-2.6-1.2-1.8 0-2.5 1.2-0.7 1.3-0.7 4.1v10.8q0 3.9 1.5 4.7 0.6 0.4 1.7 0.4 1.1 0 1.8-0.5 1.5-0.9 1.5-4.8z"/><path class="P" d="m-1258.2-1653.3c0 0 2.7 7.5 7.4 12.6 0 0 6.2 6.1 4.6 14.5 0 0-2.9 8.6-12.4 8.6 0 0-13 0-11.9-14.1 0 0-0.1-4.4 4.3-8.9 0 0 7-7.4 8-12.7z"/><path class="Q" d="m-1256.8-1625.7c0 0-0.4 1.8-1.4 1.8-1.1 0-2 0.3-2.5 0-0.6-0.4-3.1-0.8-3.1-0.8 0 0-1.4-0.8-1.4-1 0-0.2 0.5-2 0-2.3-0.6-0.4-2-1.1-1.8-1.8 0.2-0.7 0-2 0-2 0 0-0.2 0.4 1.2 0 1.5-0.3 2.4-1 2.4-1 0 0 0.3 1.6 0.5 0 0.2-1.7 1.1-1.3 1-2.6-0.1-1.4 0-2.3 0-2.3 0 0 0.1-0.5 1 0 0.9 0.6 0.9 0.6 0.9 0.6l1.8 0.2 1.4 1.5c0.9-0.3 0.2-0.3 0.9-0.3 0.7 0-0.4 0.5 0.7 0 1.1-0.5 0 0.4 1.1-0.5 1-0.9 1.4-3 2.1-1.7 0.7 1.3 0.7-0.8 0.7 1.3 0 2.1-0.2 1.6 0 2.9 0.2 1.2-0.5 1.2 0.9 1.9 1.4 0.7 0.9 0 1.4 0.7 0.6 0.8-0.5 1.1 0 1.7 0.6 0.5-0.8 1.6-0.8 1.6 0 0-0.4 0.5-0.8 1.2-0.3 0.7-0.3 0.7-0.3 0.7 0 0-0.9 0-1.5 0.2-0.5 0.2-0.8 1.4-1.4 0.8-0.5-0.6-1.2 0.7-2.1 0-0.9-0.8-0.9-0.8-0.9-0.8z"/><path class="R" d="m-1303.2-1515.6c0.5 16.1 21.4 22.8 21.4 22.8 22 6.6 35.8-14.8 35.8-14.8-12.1 29.2-41.7 20.3-41.7 20.3-26.4-7.6-22.6-31.7-22.6-31.7 7.1-29.1 32.9-26 32.9-26-29.4 7.2-25.8 29.4-25.8 29.4z"/><path class="S" d="m-1291.3-1528.8c-5.9 11.4 5.9 24.2 5.9 24.2 12.6 13.1 30.6 3.4 30.6 3.4-19.8 15.8-36.8-1.8-36.8-1.8-15.3-15.5-3.3-31-3.3-31 16.3-17.6 33-5.5 33-5.5-23.2-6.3-29.4 10.7-29.4 10.7z"/><text style="transform:matrix(4,0,0,4,-1281.889,-1506.59)" ><tspan x="0" y="0" class="T">p
</tspan></text><text style="transform:matrix(4,0,0,4,-1222.731,-1506.59)" ><tspan x="0" y="0" class="U">xytech
</tspan></text><path class="R" d="m-1234.6-1522.1c-6.1 3.1-2.7 9.2-2.7 9.2 5.2 7.7 13.9 0.6 13.9 0.6-1 4.9-7 7.1-7 7.1-16.2 2.3-17-9.1-17-9.1-0.5-9.4 6.5-12.2 6.5-12.2 10.2-3.4 16.7 4.9 16.7 4.9-6.4-2.1-10.4-0.5-10.4-0.5z"/><path class="V" d=""/><path class="W" d="m-1233.4-1507.5c0 0-7.6-2-9.4-7.4 0 0-1.7-9.7 9.4-10.3"/><path fill-rule="evenodd" class="X" d="m-1208.4-1395.3c0 13.2-10.7 23.9-23.9 23.9-13.1 0-23.8-10.7-23.8-23.9 0-13.2 10.7-23.8 23.8-23.8 13.2 0 23.9 10.6 23.9 23.8zm-8.6 0c0-9.1-7.4-16.4-16.5-16.4-9 0-16.4 7.3-16.4 16.4 0 9.1 7.4 16.4 16.4 16.4 9.1 0 16.5-7.3 16.5-16.4z"/><path class="Y" d="m-1209-1376.6c1.5 1.3 1.6 3.6 0.2 5-1.3 1.5-3.6 1.6-5 0.2l-20.6-18.8c-1.4-1.3-1.5-3.6-0.2-5 1.4-1.5 3.6-1.6 5.1-0.3z"/><path  d="m-1195-1371.4h-7.9v-46.6h7.9z"/><path  d="m-1181.4-1371.4h-7.9v-32.8h7.9z"/><path  d="m-1181.4-1411.7c0 2.1-1.8 3.9-4 3.9-2.1 0-3.9-1.8-3.9-3.9 0-2.2 1.8-3.9 3.9-3.9 2.2 0 4 1.7 4 3.9z"/><path fill-rule="evenodd" d="m-1149.6-1396.4c0 0 3.9 11-7.5 15.2 0 0-5.4 2.2-11 0.4 0 0-3.3 3.7 4.7 3.6h7.1c0 0 9 0 10.6 8h-5.7l-2.9-2.2c0 0-3.7-2.7-21.2 0 0 0-4.5-4.9 3.5-11.2 0 0-9.3-7.9-1.2-17.1 0 0 4.4-5.4 19.7-4.5h6.1c0 0 2.8 1.1 1.7 3.7 0 0-0.2 3.5-3.9 4.1zm-7.4 5.2c0-3-2.5-5.5-5.5-5.5-3.1 0-5.6 2.5-5.6 5.5 0 3.1 2.5 5.6 5.6 5.6 3 0 5.5-2.5 5.5-5.6z"/><path  d="m-1134.1-1418v13.7h8.8c12.6 1.3 11.6 15.5 11.6 15.5v17.4h-8.1v-17.6c0.2-8.2-5.9-7.7-5.9-7.7h-6.2v25.3h-8.1v-46.6z"/><path  d="m-1106.4-1418h7.9v13.7h5.1v7.6h-5.1v15.2c0 0 0 3 5.8 2.5v7.6h-5.8c0 0-7.2 0.1-7.9-5.5v-19.8h-3.9v-7.5h4.2z"/><path class="d" d="m-789.9-1661.3h-245.7v-68.1h245.7z"/><path class="a" d="m-1016.7-1718h9.5v37.2h-9.5z"/><path class="a" d="m-996.9-1713.9h-29.6v-6.6h29.6z"/><path class="a" d="m-985.5-1720.5v8.6l5.6-0.2c8.9 0 8 8.4 8 8.4v22.9h-7.8v-23.8h-5v23.8h-8.3v-39.7z"/><path class="a" d="m-959.9-1703.5v22h-8.4v-19.2c0-11.7 8.8-11.2 8.8-11.2h5v5.9c-5.2-0.7-5.4 2.5-5.4 2.5z"/><path fill-rule="evenodd" class="a" d="m-931.1-1680.8h-10.9c-10.9 0.7-10.9-10.7-10.9-10.7v-10c0.1-11.3 8.4-10.4 8.4-10.4h4.8c10-0.5 8.6 10.4 8.6 10.4 0 8.7-9 6.9-9 6.9-4.6 0.2-4.3 3.8-4.3 3.8-0.9 4.1 4 3.7 4 3.7h9.3v5.6zm-13.9-21.2c0 1.8 1.3 3.3 3 3.3 1.6 0 2.9-1.5 2.9-3.3 0-1.8-1.3-3.3-2.9-3.3-1.7 0-3 1.5-3 3.3z"/><path fill-rule="evenodd" class="a" d="m-906.3-1680.8h-10.9c-10.9 0.7-11-10.7-11-10.7v-10c0.2-11.3 8.5-10.4 8.5-10.4h4.7c10-0.5 8.6 10.4 8.6 10.4 0 8.7-8.9 6.9-8.9 6.9-4.7 0.2-4.3 3.8-4.3 3.8-0.9 4.1 3.9 3.7 3.9 3.7h9.3v5.6zm-13.8-21.2c0 1.8 1.3 3.3 2.9 3.3 1.7 0 3-1.5 3-3.3 0-1.8-1.3-3.3-3-3.3-1.6 0-2.9 1.5-2.9 3.3z"/><path class="a" d="m-906.3-1714v-5.5h24.7c0 0 8.1-0.1 7.5 9.4 0 0-0.5 5.3-3.3 6.4v2.4c0 0 4 0.2 3.4 10.2 0 0 0.9 9.6-10.5 10.3h-24.7v-6.3h17c0 0 7.5 1 8.1-5.1v-6.5h-9.1v8.3h-9v-20.7h8.3v6.5h6.6c0 0 4.8 0.5 4-4.9 0 0 0.5-5.6-6.6-5.2z"/><path fill-rule="evenodd" class="a" d="m-848.2-1699.9v7.5c0 6.4-5 11.6-11.1 11.6-6.2 0-11.2-5.2-11.2-11.6v-7.5c0-6.4 5-11.6 11.2-11.6 6.1 0 11.1 5.2 11.1 11.6zm-7.4 1.1c0-3.6-1.5-6.6-3.3-6.6-1.8 0-3.3 3-3.3 6.6v4.3c0 3.7 1.5 6.6 3.3 6.6 1.8 0 3.3-2.9 3.3-6.6z"/><path class="a" d="m-844.6-1711.5h11.3c9.6 0 9.2 7 9.2 7v23.7h-7.4v-22.3c-0.1-2.4-2.2-2.3-2.2-2.3h-2.9v24.6h-8.4z"/><path fill-rule="evenodd" class="a" d="m-798.2-1720v38.9h-15c0 0-6.8 0.2-6.6-6.8v-15.9c0 0-0.1-8.2 8.1-8.2h5.1v-8zm-8.6 15.1h-5.1v17.5h5.1z"/><text style="transform:matrix(4,0,0,4,-914.547,-1666.146)" ><tspan x="-20.1" y="0" class="Z" dx="0 0 0 0 0 0 0 0 0 0 0 0 0 0 0 0 0 0 0 0 0 0 0 0 0 0" >Liquid Gasket &amp; Silicones
</tspan></text><text style="transform:matrix(4,0,0,4,-964.504,-1362.504)" ><tspan x="0" y="0" class="a0">ZOLLNER
</tspan></text><text style="transform:matrix(4,0,0,4,-792.227,-1343.5)" ><tspan x="-8.7" y="0" class="I">GERMANY
</tspan></text><text style="transform:matrix(4,0,0,4,-859.881,-1325.437)" ><tspan x="-20.7" y="0" class="s">Alarms, Sirens, Indicators
</tspan></text><path class="a1" d="m-921-1394.3h-4.5v-4.6h4.5z"/><path class="a1" d="m-912.3-1394.3h-4.5v-4.6h4.5z"/><text style="transform:matrix(4,0,0,4,-913.609,-1771.568)" ><tspan x="-30" y="0" class="a2">SCHAEFER
</tspan></text><path class="a3" d="m-906.7-1832.4c0 0-14.7-12.9-6.9-23.3 0 0 6.3-8.6 19.1-3.1 0 0 22.1 7.1 14.7 32.7 0 0-4.6 16.6-14.8 19.9l-0.5-1.2c0 0 10.7-9.5 10.4-13.2 0 0-16.3-5.1-22-11.8z"/><path class="a3" d="m-932.9-1824.2c0 0-11.4 2-14.2-9.8 0 0-2-11.3 5.1-19.7 0 0 17.1-19.6 46.3-9.5l-1.4 1.5c0 0-4.7-3-18.8-2.2 0 0 10.4 8 6.5 22.6 0 0-4.9 17.5-23.5 17.1z"/><path class="a3" d="m-943.4-1818.6c49.1-29.5 45.7-10.2 45.7-10.2 8.3 5 3.5 14.5 3.5 14.5-7.8 14.8-24.8 11.5-24.8 11.5-32.4-4.3-33.6-31.9-33.6-31.9 0 0 1.7-0.9 1.7 0 0.6 7.5 7.5 16.1 7.5 16.1z"/><path class="a" d="m-907.5-1834.7c0 2-1.6 3.6-3.6 3.6-2 0-3.6-1.6-3.6-3.6 0-2 1.6-3.7 3.6-3.7 2 0 3.6 1.7 3.6 3.7z"/><text style="transform:matrix(4,0,0,4,-1025.211,-1750.627)" ><tspan x="0" y="0" class="a4">“Quality and Innovation Since 1951”
</tspan></text><path class="a5" d="m-795.1-1762.1h-239.2"/><path class="a5" d="m-795.1-1744.4h-239.2"/><path class="a" d="m-903-1831.9c0 0.7-0.5 1.2-1.1 1.2-0.6 0-1.1-0.5-1.1-1.2 0-0.6 0.5-1.1 1.1-1.1 0.6 0 1.1 0.5 1.1 1.1z"/><path class="a" d="m-918.1-1831.8c0 0.6-0.5 1.1-1.1 1.1-0.6 0-1.1-0.5-1.1-1.1 0-0.6 0.5-1.1 1.1-1.1 0.6 0 1.1 0.5 1.1 1.1z"/><path class="a" d="m-910-1842.8c0 0.6-0.5 1.1-1.1 1.1-0.6 0-1.1-0.5-1.1-1.1 0-0.6 0.5-1.1 1.1-1.1 0.6 0 1.1 0.5 1.1 1.1z"/><path class="a6" d="m-1587.2-1332.6l-30.2 7.2-77.7-526.6z"/><path class="a7" d="m-1003.2-1326.4l-30.1 7.2-77.8-526.6z"/><path class="a8" d="m-1423-1847.9l30.2-7.1 77.7 526.6z"/><path class="a9" d="m-1246-1501h44.5"/><path class="a9" d="m-1179.9-1501h95.4"/><text style="transform:matrix(4,0,0,4,-797.479,-1567.484)" ><tspan x="-55" y="0" class="aa">Victor Marine Ltd. UK
</tspan></text><text style="transform:matrix(4,0,0,4,-907.434,-1548.191)" ><tspan x="-17.3" y="0" class="ab">Gas Freeing Fans and
</tspan><tspan x="-20.8" y="4" class="ab">Tank Cleaning Equipment
</tspan></text><path class="S" d="m-930.3-1635.1l-7.5 23.3c-3.4 14.4-7.9 13.7-7.9 13.7-3.2-0.5-2.9-3.3-2.9-3.3 4.3-23.1 11.8-32.7 11.8-32.7 6.5-2.7 6.5-1 6.5-1z"/><path class="S" d="m-877.2-1617.4c0.5 0 19.3-7.2 19.3-7.2l8.2 13c0 0-12.6 22.4-35.1 7.2z"/><path class="R" d="m-867.2-1599.3c0 0-21.6 8.4-37.4-5.9l-22.8-23c0 0-3.3-4.6-9.4-5.9 0 0 11.8-10.7 21.8-0.8 0 0 27.6 27.1 30.6 30.8 0 0 7.2 5.9 17.2 4.8z"/><path class="R" d="m-964.4-1622.3c0 0 3-1.8 4.5 0.6l13.1 21.7c0 0 1.9 2.9-1.8 3.2 0 0-3.1 0.6-4.5-2.7l-11.8-20.4c0 0-0.6-1.2 0.5-2.4z"/><path class="S" d="m-959.7-1607.4c4.7-17.1 6.1-18.6 6.1-18.6 1.8-0.9 2.8 0.5 2.8 0.5 1.1 6.4-2.6 18.6-2.6 18.6-4.7 13.7-8.6 9.4-8.6 9.4 0.1-1.8 2.3-9.9 2.3-9.9z"/><path class="S" d="m-925.1-1602.7c0 0 6.4-46.1 37.9-46.7 0 0-13.6 8-18 31.5-0.1 0.7-4.9 18-16 18.8 0 0-3.3-1.9-3.9-3.6z"/><path class="R" d="m-954-1625.3c0 0 5.1-12.4 14.6 1.3l12.1 16.2c0 0 3.1 5.8 10.4 8 0 0 2.1 5.1-12.5 1.7 0 0-7.6-3.1-13.2-16.3 0 0-7.9-14.2-11.4-10.9z"/><path class="ac" d="m-893.6-1454.8c13.3 5.5 21.6-2.3 21.6-2.3-10 4.4-18.9 0-18.9 0 4.9-10.9 15.3-13 15.3-13 15.6-2.9 16.6-9.2 16.6-9.2 2.6 30.7-26.1 30.2-26.1 30.2-21.5-0.9-24.8-19.3-24.8-19.3 6.3 9.9 16.3 13.6 16.3 13.6z"/><path class="ad" d="m-903.4-1462.8l-6.9-8.6c0 0-2.1-11.6 10.2-25.5 0 0 11.3-11.8 15.6-25.9 0 0 8.1 17.7 16.5 26.8 0 0 7.1 8.6 8.4 15.6l-3 3.9c0 0-2.4-11.3-15.2-26 0 0-5.1-6.6-6.8-10.3 0 0-7.3 12.6-12.3 18.4 0 0-15.1 16.3-6.5 31.6z"/><path fill-rule="evenodd" class="ae" d="m-941.6-1437.6q0 2.4-2.7 2.4h-7.5v4.7h-2.8v-12.1h10.3q2.7 0 2.7 2.3zm-2.7-0.6v-1.3q0-0.6-0.3-0.8-0.3-0.2-0.9-0.2h-6.3v3.2h6.3q0.6 0 0.9-0.2 0.3-0.1 0.3-0.7z"/><path fill-rule="evenodd" class="af" d="m-921.8-1430.5h-4l-4.9-4.6h-2.6v4.6h-2.8v-12.1h10.3q2.7 0 2.7 2.3v2.9q0 1.7-1.4 2.1-0.5 0.2-2.9 0.2zm-3.9-7.6v-1.4q0-0.6-0.4-0.8-0.3-0.2-0.9-0.2h-6.3v3.4h6.3q0.6 0 0.9-0.2 0.4-0.2 0.4-0.8z"/><path fill-rule="evenodd" class="ag" d="m-901.6-1433.4q0 1.7-0.7 2.3-0.6 0.6-2.3 0.6h-8.9q-1.7 0-2.3-0.6-0.7-0.6-0.7-2.3v-6.3q0-1.7 0.7-2.3 0.6-0.6 2.3-0.6h8.9q1.7 0 2.3 0.6 0.7 0.6 0.7 2.3zm-2.8 0.5v-7.6h-9.3v7.6z"/><path fill-rule="evenodd" class="ah" d="m-871.4-1437.6q0 2.4-2.7 2.4h-7.5v4.7h-2.8v-12.1h10.3q2.7 0 2.7 2.3zm-2.7-0.6v-1.3q0-0.6-0.3-0.8-0.3-0.2-0.9-0.2h-6.3v3.2h6.3q0.6 0 0.9-0.2 0.3-0.1 0.3-0.7z"/><path class="ai" d="m-852.7-1433.4q0 1.7-0.7 2.3-0.6 0.6-2.3 0.6h-7.6q-1.7 0-2.4-0.6-0.6-0.6-0.6-2.3v-9.2h2.8v9.8h8v-9.8h2.8z"/><path fill-rule="evenodd" class="aj" d="m-831.1-1430.5h-4l-4.9-4.6h-2.7v4.6h-2.7v-12.1h10.3q2.7 0 2.7 2.3v2.9q0 1.7-1.4 2.1-0.5 0.2-2.9 0.2zm-4-7.6v-1.4q0-0.6-0.3-0.8-0.3-0.2-0.9-0.2h-6.3v3.4h6.3q0.6 0 0.9-0.2 0.3-0.2 0.3-0.8z"/><path class="ak" d="m-813.1-1430.5h-12.4v-12.1h12.3v2.1h-9.5v2.7h5.5v2h-5.5v3h9.6z"/><text style="transform:matrix(4,0,0,4,-883.848,-1412.297)" ><tspan x="-22" y="0" class="s">Water Purification Systems
</tspan></text><text style="transform:matrix(4,0,0,4,-1213.096,-1578.41)" ><tspan x="-20.5" y="0" class="s">Adiabatic Cooling System
</tspan></text><path fill-rule="evenodd" class="d" d="m-1318.1-1731.3c0 0-5.5 1.3-10 0.6l-2.7 17.2h-10.1l7.5-46.2c0 0 23.5-3.9 26.3 10.8 0 0 3.6 13.1-11 17.6zm1.7-13.2c0.2-8-8.9-6.1-8.9-6.1l-1.8 12.2c10.3 1.6 10.7-6.1 10.7-6.1z"/><path class="d" d="m-1299.9-1713.5c-0.3 0-8.2 0-8.2 0l4.1-29.5h7.9l0.6 1.9c0 0 7.4-4.6 10.1-1.9l-2.1 7.9c0 0-9.2-4.2-11 11.1z"/><path class="d" d="m-1275-1748.4c0 0 9.1-13.9 22-10.7 0 0 4.5 1.6 5.6 5.1 0 0 1.3 2.4-1.3 3.6 0 0-2.4 1.1-4.5-0.7 0 0-9.9-10.1-21.8 2.7z"/><path class="d" d="m-1272.4-1718.1c0 0-13.5-9.7-9.7-22.5 0 0 1.8-4.4 5.4-5.4 0 0 2.4-1.1 3.6 1.5 0 0 0.9 2.5-1 4.5 0 0-10.5 9.4 1.7 21.9z"/><path class="S" d="m-1247.1-1750.1c0 0 14.5 8.3 12 21.3 0 0-1.3 4.7-4.8 6 0 0-2.2 1.4-3.6-1.1 0 0-1.3-2.4 0.4-4.5 0 0 9.5-10.5-4-21.7z"/><path class="S" d="m-1242.5-1721.1c0 0-8.5 14.3-21.6 11.6 0 0-4.6-1.4-5.9-4.9 0 0-1.3-2.3 1.2-3.7 0 0 2.4-1.1 4.6 0.6 0 0 10.3 9.6 21.7-3.6z"/><path class="S" d="m-1219.8-1743v3.4c3.2-4.4 8.4-4.5 8.4-4.5 5.8-0.3 6.5 6.1 6.5 6.1h1.7c2.7-6 9.3-6.1 9.3-6.1 10.8 0.4 7.2 18.6 7.2 18.6l-2 11.9h-8.1l2.1-13c2.4-11.7-3.7-10.8-3.7-10.8-6.9 0.6-6.5 11.5-6.5 11.5l-1.6 12.3h-7.9c0 0 1.4-7 2.1-15.9 0.7-8.9-3.8-7.6-3.8-7.6-5.3 0.2-6.1 7.6-6.1 7.6l-2.3 15.9c0 0-7.6 0.1-7.9 0-0.2-0.1 4.3-29.2 4.3-29.2z"/><path class="S" d="m-1184.8-1713.6l3.7-29.6h8.9l-4 29.6z"/><path class="S" d="m-1168.3-1755.2c0 3.2-2.5 5.8-5.7 5.8-3.2 0-5.8-2.6-5.8-5.8 0-3.2 2.6-5.8 5.8-5.8 3.2 0 5.7 2.6 5.7 5.8z"/><path class="S" d="m-1163.4-1736c-1.7 4.4 4.1 6 4.1 6 7.1 2.9 6.4 8.5 6.4 8.5-1.3 7.5-9.2 8.8-9.2 8.8-7.3 1.1-11.4-5.9-11.4-5.9l5.1-4 1.9 2c3.2 2.8 5.8 0 5.8 0 1.9-3.1-2-4.8-2-4.8-8.3-2.9-8.2-7.6-8.2-7.6-0.5-6.3 4.8-9.7 4.8-9.7 9.1-4.2 14.1 3.4 14.1 3.4l-4.3 4.6c-4.4-5-7.1-1.3-7.1-1.3z"/><path class="S" d="m-1145.6-1735.2l-4.6-0.2 0.9-6.2 5.5-0.4 0.9-8.6h7.7l-1.6 8.5 6 0.3-0.7 6.6h-5.6l-3.2 22.6h-7.8z"/><path class="al" d="m-1255.9-1733.8c0 0 8.4-1.9 6.9 4.3 0 0-0.7 2.9-4.3 5.3 0 0-3.8 2.4-3.8-1.8l0.5-6.5z"/><path class="am" d="m-1260.2-1730.7c0 0-3.3 8-7.5 3.2 0 0-1.9-2.3-1.8-6.6 0 0 0.2-4.5 3.7-2l5 4z"/><path class="an" d="m-1260.1-1736.7c0 0-5.8-6.5 0.3-8.2 0 0 3-0.7 6.8 1.3 0 0 3.9 2.1 0.2 4.2l-5.9 2.7z"/><path  d="m-1254.7-1733.5c0 2.2-1.8 4-4 4-2.2 0-3.9-1.8-3.9-4 0-2.2 1.7-3.9 3.9-3.9 2.2 0 4 1.7 4 3.9z"/><path class="a" d="m1487.9-1694.5c0 200.4-162.4 362.9-362.8 362.9-200.4 0-362.8-162.5-362.8-362.9 0-200.3 162.4-362.8 362.8-362.8 200.4 0 362.8 162.5 362.8 362.8z"/><path class="ao" d="m1453.9-1694.5c0 181.7-147.2 328.9-328.8 328.9-181.6 0-328.8-147.2-328.8-328.9 0-181.6 147.2-328.8 328.8-328.8 181.6 0 328.8 147.2 328.8 328.8z"/><path class="c" d="m970.7-1783.3c0.7 0.6 1.9 1.6 3.7 2.8 2.7 1.7 6.4 3.9 10.7 5.6 4.3 1.8 9.2 3 14.1 3q0.3 0 0.7 0c1.2 0 2.7-0.4 4.4-1 2.5-1 5.5-2.5 8.5-4 3-1.5 6-3 8.8-3.9 1.8-0.6 6.3-1.8 11.9-1.8 3.5 0 7.4 0.5 11.4 2 5 1.8 10.2 3.9 14.8 5.7 4.7 1.8 8.9 3.3 11.7 4 2.9 0.7 5.8 1.3 8.7 1.3 3.3 0 6.7-0.7 10.5-2.5 3.6-1.8 9-4.8 14.7-7.4 2.8-1.2 5.8-2.4 8.7-3.2 2.9-0.9 5.7-1.4 8.4-1.4q0.2 0 0.5 0c2.6 0.1 5.5 0.6 8.5 1.5 4.5 1.2 9.4 3.1 14.3 5.1 4.9 2 9.9 4 14.7 5.5 2.5 0.7 4.9 1 7.3 1 4.9 0 9.6-1.3 13.6-2.8 1.9-0.8 3.7-1.7 5.2-2.5 1.5-0.7 2.7-1.4 3.6-1.9q1.3-0.7 3.4-1.3c4.1-1.3 10.2-2.2 16.3-2.2 3.2 0 6.4 0.2 9.3 0.9 4.9 1.1 10.5 3.3 16 5.3 2.7 1 5.3 1.9 7.8 2.5 2.4 0.7 4.7 1.1 6.5 1.1q0.5 0 0.9 0c2.3-0.2 7.4-0.9 12.9-2.8 5.6-1.9 11.7-5 16.1-9.8l1.5 1.4c-4.7 5.2-11.1 8.4-16.8 10.4-5.9 2-11 2.7-13.5 2.9l-0.1-1.1 0.1 1.1q-0.5 0-1.1 0c-2.1 0-4.5-0.4-7.1-1.1-3.8-1.1-8-2.6-12.1-4.1-4.1-1.5-8.1-3-11.6-3.8-2.7-0.6-5.7-0.8-8.8-0.8-3.9 0-7.9 0.4-11.2 1-1.7 0.3-3.2 0.7-4.5 1.1-1.3 0.4-2.3 0.8-3 1.2-0.9 0.4-2.1 1.1-3.6 1.9-4.7 2.4-11.9 5.5-19.8 5.5-2.6 0-5.2-0.3-7.9-1.1-6.5-2.1-13.3-5-19.7-7.5-3.3-1.2-6.4-2.3-9.3-3.1-2.9-0.8-5.6-1.3-8-1.4q-0.2 0-0.4 0c-2.4 0-5.1 0.5-7.8 1.3-4.2 1.2-8.6 3.1-12.6 5.1-4 2-7.7 4-10.5 5.4-4 2-7.8 2.7-11.4 2.7-3.2 0-6.3-0.6-9.1-1.3-3.1-0.8-7.3-2.3-12-4.1-4.7-1.8-9.9-3.9-14.8-5.8-3.7-1.3-7.4-1.8-10.7-1.8-5.3 0-9.6 1.2-11.2 1.7-3.5 1.2-7.6 3.3-11.6 5.3-1.9 0.9-3.9 1.9-5.7 2.5-1.8 0.7-3.5 1.2-5 1.2q-0.4 0.1-0.8 0c-7 0-13.8-2.4-19.1-5-2.7-1.4-5-2.8-6.9-4-1.8-1.2-3.1-2.2-3.9-2.9z"/><path class="c" d="m970.7-1775.8c0.7 0.5 1.9 1.5 3.7 2.7 2.7 1.8 6.4 3.9 10.7 5.6 4.3 1.8 9.2 3 14.1 3q0.3 0 0.7 0c1.2 0 2.7-0.4 4.4-1 2.5-1 5.5-2.5 8.5-4 3-1.5 6-3 8.8-3.9 1.8-0.6 6.3-1.8 11.9-1.8 3.5 0 7.4 0.5 11.4 2 5 1.9 10.2 3.9 14.8 5.7 4.7 1.8 8.9 3.3 11.7 4 2.9 0.7 5.8 1.3 8.7 1.3 3.3 0 6.7-0.7 10.5-2.5 3.6-1.8 9-4.8 14.7-7.3 2.8-1.3 5.8-2.5 8.7-3.3 2.9-0.9 5.7-1.4 8.4-1.4q0.2 0 0.5 0c2.6 0.1 5.5 0.6 8.5 1.5 4.5 1.2 9.4 3.2 14.3 5.1 4.9 2 9.9 4 14.7 5.5 2.5 0.7 4.9 1 7.3 1 4.9 0 9.6-1.3 13.6-2.9 1.9-0.7 3.7-1.6 5.2-2.3 1.5-0.8 2.7-1.5 3.6-2q1.3-0.7 3.4-1.3c4.1-1.3 10.2-2.2 16.3-2.2 3.2 0 6.4 0.2 9.3 0.9 4.9 1.1 10.5 3.3 16 5.3 2.7 1 5.3 1.9 7.8 2.5 2.4 0.7 4.7 1.1 6.6 1.1q0.4 0 0.8 0c2.3-0.2 7.4-0.9 12.9-2.8 5.6-1.9 11.7-5 16.1-9.8l1.5 1.4c-4.7 5.2-11.1 8.4-16.8 10.4-5.8 2-11 2.7-13.5 2.9q-0.5 0-1 0c-2.2 0-4.6-0.5-7.2-1.1-3.8-1.1-8-2.6-12.1-4.1-4-1.5-8.1-3-11.6-3.8-2.7-0.6-5.7-0.8-8.8-0.8-3.9 0-7.9 0.4-11.2 1-1.7 0.3-3.2 0.7-4.5 1.1-1.3 0.4-2.3 0.8-3 1.2-0.9 0.4-2.1 1.1-3.6 1.9-4.6 2.4-11.9 5.5-19.8 5.5-2.6 0-5.2-0.3-7.9-1.1-6.5-2.1-13.3-5-19.7-7.5-3.3-1.2-6.4-2.3-9.3-3.1-2.9-0.8-5.6-1.3-8-1.4q-0.2 0-0.4 0c-2.4 0-5.1 0.5-7.8 1.3-4.2 1.2-8.6 3.1-12.6 5.1-4 2-7.7 4-10.5 5.3-4 2.1-7.8 2.8-11.4 2.8-3.2 0-6.3-0.6-9.1-1.3-3.1-0.8-7.3-2.3-12-4.1-4.7-1.8-9.9-3.9-14.8-5.8-3.7-1.3-7.4-1.8-10.7-1.8-5.3 0-9.6 1.2-11.2 1.7-3.5 1.2-7.6 3.3-11.6 5.3-1.9 0.9-3.9 1.8-5.7 2.5-1.8 0.7-3.5 1.2-5 1.2q-0.4 0-0.8 0c-7 0-13.8-2.4-19.1-5-2.7-1.3-5-2.8-6.9-4-1.8-1.2-3.1-2.2-3.9-2.9z"/><path class="c" d="m970.7-1768.4c0.7 0.5 1.9 1.5 3.7 2.7 2.7 1.7 6.4 3.9 10.7 5.6 4.3 1.8 9.2 3 14.1 3q0.3 0 0.7 0c1.2 0 2.7-0.4 4.4-1 2.5-1 5.5-2.5 8.5-4 3-1.5 6-3 8.8-3.9 1.8-0.6 6.3-1.8 11.9-1.8 3.5 0 7.5 0.5 11.4 2 5 1.8 10.2 3.9 14.8 5.7 4.7 1.8 8.9 3.3 11.7 4 2.9 0.7 5.8 1.3 8.7 1.3 3.3 0 6.7-0.7 10.5-2.5 3.6-1.8 9-4.8 14.7-7.4 2.8-1.2 5.8-2.4 8.7-3.2 2.9-0.9 5.7-1.4 8.4-1.4q0.2 0 0.5 0c2.6 0.1 5.5 0.6 8.5 1.5 4.5 1.2 9.4 3.1 14.3 5.1 4.9 2 10 4 14.7 5.5 2.5 0.7 4.9 1 7.3 1 4.9 0.1 9.6-1.3 13.6-2.9 1.9-0.7 3.7-1.6 5.2-2.4 1.5-0.7 2.7-1.4 3.6-1.9q1.3-0.7 3.4-1.3c4.1-1.3 10.2-2.2 16.3-2.2 3.2 0 6.4 0.2 9.3 0.9 4.9 1.1 10.5 3.3 16 5.3 2.7 1 5.3 1.9 7.8 2.5 2.4 0.7 4.7 1.1 6.5 1.1q0.5 0 0.9 0c2.3-0.2 7.4-0.9 12.9-2.8 5.6-1.9 11.7-5 16.1-9.8l1.5 1.4c-4.7 5.2-11.1 8.4-16.8 10.4-5.9 2-11 2.7-13.5 2.9l-0.1-1.1 0.1 1.1q-0.5 0-1.1 0c-2.1 0-4.5-0.5-7.1-1.1-3.8-1.1-8-2.6-12.1-4.1-4.1-1.5-8.1-3-11.6-3.8-2.7-0.6-5.7-0.8-8.8-0.8-3.9 0-7.9 0.4-11.2 1-1.7 0.3-3.2 0.7-4.5 1.1-1.3 0.4-2.3 0.8-3 1.1-0.9 0.5-2.1 1.2-3.6 2-4.6 2.4-11.9 5.5-19.8 5.5-2.6 0-5.2-0.3-7.9-1.1-6.5-2.1-13.3-5-19.7-7.5-3.3-1.2-6.4-2.3-9.3-3.1-2.9-0.8-5.6-1.3-8-1.4q-0.2 0-0.4 0c-2.4 0-5.1 0.5-7.8 1.3-4.2 1.2-8.6 3.1-12.6 5.1-4 2-7.7 4-10.5 5.4-4 2-7.8 2.7-11.4 2.7-3.2 0-6.3-0.6-9.1-1.3-3.1-0.8-7.3-2.3-12-4.1-4.7-1.8-9.9-3.9-14.8-5.8-3.7-1.3-7.4-1.8-10.7-1.8-5.3 0-9.6 1.2-11.2 1.7-3.5 1.1-7.6 3.3-11.6 5.3-1.9 0.9-3.9 1.8-5.7 2.5-1.8 0.7-3.5 1.2-5 1.2q-0.4 0-0.8 0c-7 0-13.8-2.4-19.1-5-2.7-1.4-5-2.8-6.9-4-1.8-1.2-3.1-2.2-3.9-2.9z"/><path class="c" d="m970.7-1761c0.7 0.5 1.9 1.5 3.7 2.7 2.7 1.7 6.4 3.9 10.7 5.7 4.3 1.7 9.2 2.9 14.1 2.9q0.3 0 0.7 0c1.2 0 2.7-0.4 4.4-1 2.5-1 5.5-2.5 8.5-4 3-1.5 6-3 8.8-3.9 1.8-0.6 6.3-1.8 11.9-1.8 3.5 0 7.4 0.5 11.4 2 5 1.9 10.2 3.9 14.8 5.7 4.7 1.8 8.9 3.3 11.7 4 2.9 0.7 5.8 1.3 8.7 1.3 3.3 0 6.7-0.7 10.5-2.5 3.6-1.8 9-4.8 14.7-7.3 2.8-1.3 5.8-2.5 8.7-3.3 2.9-0.9 5.7-1.4 8.4-1.4q0.2 0 0.5 0c2.6 0.1 5.5 0.6 8.5 1.5 4.5 1.2 9.4 3.1 14.3 5.1 4.9 2 10 4 14.7 5.5 2.5 0.7 4.9 1 7.3 1 4.9 0 9.6-1.3 13.6-2.8 1.9-0.8 3.7-1.7 5.2-2.4 1.5-0.8 2.7-1.5 3.6-2q1.3-0.7 3.4-1.3c4.1-1.3 10.2-2.2 16.3-2.2 3.2 0 6.4 0.2 9.3 0.9 4.9 1.1 10.5 3.3 16 5.3 2.7 1 5.3 1.9 7.8 2.5 2.4 0.7 4.7 1.1 6.6 1.1q0.4 0 0.8 0c2.3-0.2 7.4-0.9 12.9-2.8 5.6-1.9 11.7-5 16.1-9.8l1.5 1.4c-4.7 5.2-11.1 8.4-16.8 10.4-5.8 1.9-11 2.7-13.5 2.9l-0.1-1.1 0.1 1.1q-0.5 0-1 0c-2.2 0-4.6-0.4-7.2-1.1-3.8-1-8-2.6-12.1-4.1-4.1-1.5-8.1-3-11.6-3.8-2.7-0.6-5.7-0.8-8.8-0.8-3.9 0-7.9 0.4-11.2 1-1.7 0.3-3.2 0.7-4.5 1.1-1.3 0.4-2.3 0.8-3 1.2-0.9 0.4-2.1 1.1-3.6 1.9-4.6 2.4-11.9 5.5-19.8 5.5-2.6 0-5.2-0.3-7.9-1.1-6.5-2.1-13.3-5-19.7-7.5-3.3-1.2-6.4-2.3-9.3-3.1-2.9-0.8-5.6-1.3-8-1.4q-0.2 0-0.4 0c-2.4 0-5.1 0.5-7.8 1.3-4.2 1.2-8.6 3.1-12.6 5.1-4 2-7.7 4-10.5 5.4-4 2-7.8 2.7-11.4 2.7-3.2 0-6.3-0.6-9.1-1.3-3.1-0.8-7.3-2.3-12-4.1-4.7-1.8-9.9-3.9-14.8-5.8-3.7-1.3-7.4-1.8-10.7-1.8-5.3 0-9.6 1.2-11.2 1.7-3.5 1.1-7.6 3.3-11.6 5.3-1.9 0.9-3.9 1.9-5.7 2.5-1.8 0.7-3.5 1.2-5 1.2q-0.4 0-0.8 0c-7 0-13.8-2.4-19.1-5-2.7-1.4-5-2.8-6.9-4-1.8-1.2-3.1-2.2-3.9-2.9z"/><path class="c" d="m970.7-1753.6c0.7 0.5 1.9 1.5 3.7 2.7 2.7 1.7 6.4 3.9 10.7 5.6 4.3 1.8 9.2 3 14.1 3q0.3 0 0.7 0c1.2 0 2.7-0.4 4.4-1 2.5-1 5.5-2.5 8.5-4 3-1.5 6-3 8.8-3.9 1.8-0.6 6.3-1.8 11.9-1.8 3.5 0 7.4 0.5 11.4 2 5 1.8 10.2 3.9 14.8 5.7 4.7 1.8 8.9 3.3 11.7 4 2.9 0.7 5.8 1.3 8.7 1.3 3.3 0 6.7-0.6 10.5-2.5 3.6-1.8 9-4.8 14.7-7.3 2.8-1.3 5.8-2.5 8.7-3.3 2.9-0.9 5.7-1.4 8.4-1.4q0.2 0 0.5 0c2.6 0.1 5.5 0.6 8.5 1.5 4.5 1.2 9.4 3.1 14.3 5.1 4.9 2 9.9 4 14.7 5.5 2.5 0.7 4.9 1 7.3 1 4.9 0 9.6-1.3 13.6-2.9 1.9-0.7 3.7-1.6 5.2-2.3 1.5-0.8 2.7-1.5 3.6-2q1.3-0.7 3.4-1.3c4.1-1.3 10.2-2.2 16.3-2.2 3.2 0 6.4 0.2 9.3 0.9 4.9 1.1 10.5 3.3 16 5.3 2.7 1 5.3 1.9 7.8 2.6 2.4 0.6 4.7 1 6.5 1q0.5 0 0.9 0c2.3-0.2 7.4-0.9 12.9-2.8 5.6-1.9 11.7-5 16.1-9.8l1.5 1.4c-4.7 5.2-11.1 8.4-16.8 10.4-5.8 2-11 2.7-13.5 2.9l-0.1-1.1 0.1 1.1q-0.5 0-1.1 0c-2.1 0-4.5-0.4-7.1-1.1-3.8-1.1-8-2.6-12.1-4.1-4.1-1.6-8.1-3-11.6-3.8-2.7-0.6-5.7-0.8-8.8-0.8-3.9 0-7.9 0.4-11.2 1-1.7 0.3-3.2 0.7-4.5 1.1-1.3 0.4-2.3 0.8-3 1.2-0.9 0.4-2.1 1.1-3.6 1.9-4.6 2.4-11.8 5.5-19.8 5.5-2.6 0-5.2-0.3-7.9-1.1-6.5-2.1-13.3-5-19.7-7.5-3.3-1.2-6.4-2.3-9.3-3.1-2.9-0.8-5.6-1.3-8-1.4q-0.2 0-0.4 0c-2.4 0-5.1 0.5-7.8 1.3-4.2 1.2-8.6 3.1-12.6 5.1-4 2-7.7 4-10.5 5.4-4 2-7.8 2.7-11.4 2.7-3.2 0-6.3-0.6-9.1-1.3-3.1-0.8-7.3-2.3-12-4.1-4.7-1.8-9.9-3.9-14.8-5.7-3.7-1.4-7.4-1.9-10.7-1.9-5.3 0-9.6 1.2-11.2 1.7-3.5 1.2-7.6 3.3-11.6 5.3-1.9 0.9-3.9 1.8-5.7 2.5-1.8 0.7-3.5 1.2-5 1.2q-0.4 0-0.8 0.1c-7-0.1-13.8-2.5-19.1-5.1-2.7-1.3-5-2.8-6.9-4-1.8-1.2-3.1-2.2-3.9-2.9z"/><path fill-rule="evenodd" class="d" d="m1190.6-1842.2c-47.8 0-91.2 0-91.2 0v53.6h-66.5v-173.1c0 0 141.4 0 156.4 0 6.9 0 49.6 7.4 56.3 53.5 5.5 38.2-31 66-55 66zm24.4-59.9c0-25.6-33.6-46.4-75.1-46.4-41.6 0-75.2 20.8-75.2 46.4 0 25.6 33.6 46.3 75.2 46.3 41.5 0 75.1-20.7 75.1-46.3z"/><g clip-path="url(#cp4)"><path class="d" d="m1060.8-1903.5h162.9v4.2h-162.9"/><path class="d" d="m1141.5-1954.2v105.6h-4.1v-105.6"/><path class="d" d="m1101.1-1945.8c0.2 0.4 0.7 1.1 1.4 1.8 1.2 1.2 3.1 2.5 5.5 3.8 3.7 1.9 8.6 3.7 14 5 5.4 1.3 11.5 2.2 17.5 2.4q0.5 0 1 0c8 0 16-2.2 22.9-4.8 6.8-2.6 12.3-5.7 15.1-7.5l2.2 3.6c-3 1.8-8.8 5-15.9 7.8-7.1 2.7-15.6 5-24.3 5.1q-0.5-0.1-1.1-0.1c-9.7-0.2-19.2-2.2-26.8-5-3.7-1.4-7-2.9-9.6-4.7q-2-1.2-3.4-2.6c-1-1-1.7-2-2.2-3.1z"/><path class="d" d="m1081.7-1933.6l-0.2 0.1 0.2-0.1-0.2 0.1 0.2-0.1c0 0 0.1 0.2 0.3 0.5 0.4 0.4 1.1 1.1 2.1 2 3.3 2.9 9.8 7.5 19.2 11.5 9.3 3.9 21.4 7.1 36.1 7.1 8.7 0 19.7-1.6 30.5-5.1 10.7-3.6 21.1-9.1 28.6-16.9l2.9 3c-8.1 8.4-19.1 14.1-30.3 17.9-11.2 3.6-22.6 5.3-31.7 5.3-18.7 0-33.5-5-43.8-10.3-5.2-2.7-9.2-5.4-12.1-7.7q-2.2-1.7-3.5-3c-0.4-0.4-0.8-0.7-1.1-1.1q-0.2-0.2-0.4-0.4-0.1-0.3-0.3-0.5z"/><path class="d" d="m1178.8-1858c-0.2-0.5-0.6-1.1-1.3-1.8-1.2-1.2-3.2-2.5-5.6-3.8-3.7-1.9-8.6-3.7-14-5.1-5.4-1.3-11.4-2.1-17.5-2.3q-0.5 0-1 0c-7.9 0-16 2.2-22.8 4.8-6.9 2.6-12.4 5.7-15.2 7.4l-2.2-3.5c3.1-1.9 8.8-5.1 15.9-7.8 7.1-2.8 15.6-5.1 24.3-5.1q0.6 0 1.1 0c9.7 0.3 19.3 2.3 26.8 5 3.8 1.4 7.1 3 9.7 4.7q1.9 1.3 3.3 2.7c1 1 1.8 1.9 2.3 3.1z"/><path class="d" d="m1198.2-1870.3c0 0-0.1-0.2-0.4-0.4-0.4-0.5-1.1-1.2-2.1-2.1-3.3-2.9-9.8-7.6-19.1-11.5-9.4-3.9-21.4-7-36.1-7-8.6 0-19.7 1.5-30.5 5.1-10.7 3.6-21.1 9.1-28.6 16.8l-2.9-2.9c8.1-8.4 19.1-14.2 30.3-17.9 11.2-3.7 22.6-5.3 31.7-5.3 18.7 0 33.5 5 43.9 10.3 5.1 2.6 9.2 5.4 12 7.6 1.5 1.2 2.6 2.2 3.5 3q0.6 0.6 1.1 1.1c0.1 0.2 0.3 0.3 0.4 0.5 0.1 0.2 0.2 0.3 0.3 0.5z"/></g><path fill-rule="evenodd" class="d" d="m1014.4-1652.7l9.5-67.3h26q16.6 0 23.8 5.7 7.2 5.7 5.5 17.5-1.4 10.1-10 15.9-8.6 5.7-22.2 5.7h-5l-3.1 22.5zm31.8-53l-2.1 15q5.7-0.1 8.5-1.9 2.9-1.7 3.4-5.5 0.6-3.7-1.7-5.6-2.2-2-7.1-2z"/><path fill-rule="evenodd" class="d" d="m1079.1-1652.7l9.5-67.3h28.1q14.2 0 21.6 5.6 7.5 5.6 6.1 15.1-0.8 5.9-5.1 10.1-4.2 4.2-12 6.7l13.1 29.8h-25.8l-7.4-26.1-3.6 26.1zm31.9-53.3l-2.3 16q5-0.1 7.5-2 2.6-1.9 3.2-6 0.5-4-1.3-6-1.9-2-6.2-2z"/><path fill-rule="evenodd" class="d" d="m1147.9-1686.3q2.3-16.7 12.2-25.9 9.9-9.1 25.4-9.1 15.6 0 22.8 9.1 7.2 9.2 4.9 25.9-2.4 16.7-12.2 25.8-9.7 9.1-25.3 9.1-15.6 0-22.9-9.1-7.3-9.2-4.9-25.8zm24.7-0.5q-1.5 10.5-0.2 14.4 1.2 3.8 5.7 3.8 4.4 0 6.7-3.8 2.3-3.8 3.8-14.4 1.5-10.6 0.3-14.4-1.2-3.8-5.7-3.8-4.4 0-6.8 3.9-2.3 3.8-3.8 14.3z"/><path class="d" d="m1215.4-1652.7l9.5-67.3h43.3l-2.3 16.3h-18.9l-1.4 9.7h16.6l-2.2 15.9h-16.6l-3.6 25.4z"/><path class="c" d="m1265.1-1652.7l9.5-67.3h43.3l-2.3 16.3h-18.8l-1.2 8.6h17l-2.2 15.8h-17l-1.3 9.2h18.8l-2.4 17.4z"/><path class="c" d="m1317-1652.7l9.5-67.3h24.3l8.5 35.4 5-35.4h22.1l-9.4 67.3h-24.1l-8.8-33.7-4.7 33.7z"/><text style="transform:matrix(4,0,0,4,869.867,-1596.449)" ><tspan x="0" y="0" class="ap" dx="0 1 1 1 1 1 1 1 1 1 1 1 1 1 1 1 1 1" >ENGINEERING L.L.C
</tspan></text><text style="transform:matrix(4,0,0,4,865.758,-1566.09)" ><tspan x="0" y="0" class="aq" dx="0 4 4 4 4 4 4 4 4 4 4 4 4" >PROFESSIONAL
</tspan></text><text style="transform:matrix(4,0,0,4,1229.285,-1566.09)" ><tspan x="0" y="0" class="ar" dx="0 0 0 0 0 0 0 0 0 0" >ENGINEERS
</tspan></text><text style="transform:matrix(4,0,0,4,1002.836,-1498.391)" ><tspan x="0" y="0" class="as">www.promistcool.com
</tspan><tspan x="0" y="11" class="as" dx="0 0 0 0 0 0 0 0 0 0 0 0 0 0 0 0 0 0" >www.profeneng.com
</tspan></text><path fill-rule="evenodd" class="l" d="m984.7-1494.3c-6.1 0-11.1-4.9-11.1-11 0-6.1 5-11.1 11.1-11.1 6.1 0 11.1 5 11.1 11.1 0 6.1-5 11-11.1 11zm0-20.3c-5.1 0-9.3 4.2-9.3 9.3 0 5.1 4.2 9.2 9.3 9.2 5.1 0 9.3-4.1 9.3-9.2 0-5.1-4.2-9.3-9.3-9.3z"/><path class="l" d="m985.6-1495.2h-1.8v-20.2h1.8z"/><path class="l" d="m994.8-1504.4h-20.3v-1.8h20.3z"/><path class="l" d="m983.5-1494.5c-0.2-0.2-4.9-3.9-4.9-10.8 0-6.9 4.7-10.7 4.9-10.8l1.1 1.4c-0.1 0-4.3 3.4-4.3 9.4 0 6 4.2 9.4 4.3 9.4z"/><path class="l" d="m985.9-1494.5l-1.1-1.4c0 0 4.2-3.4 4.2-9.4 0-6-4.2-9.4-4.2-9.4l1.1-1.4c0.2 0.1 4.9 3.9 4.9 10.8 0 6.9-4.7 10.6-4.9 10.8z"/><path class="l" d="m984.7-1507.7c-6.7 0-8.6-3.6-8.7-3.8l1.6-0.7-0.8 0.4 0.8-0.5c0.1 0.2 1.6 2.8 7.1 2.8 5.5 0 7-2.6 7-2.8l1.6 0.8c0 0.2-1.9 3.8-8.6 3.8z"/><path class="l" d="m977.6-1498.4l-1.6-0.8c0.1-0.1 2-3.8 8.7-3.8 6.7 0 8.6 3.7 8.6 3.8l-1.6 0.8c0-0.1-1.5-2.8-7-2.8-5.5 0-7 2.7-7.1 2.8z"/><path fill-rule="evenodd" class="l" d="m984.6-1450c-6.1 0-11.1-5-11.1-11.1 0-6.1 5-11 11.1-11 6.1 0 11.1 4.9 11.1 11 0 6.1-5 11.1-11.1 11.1zm0-20.3c-5.1 0-9.3 4.1-9.3 9.2 0 5.2 4.2 9.3 9.3 9.3 5.1 0 9.3-4.2 9.3-9.3 0-5.1-4.2-9.2-9.3-9.2z"/><path class="l" d="m985.5-1450.9h-1.8v-20.3h1.8z"/><path class="l" d="m994.7-1460.2h-20.3v-1.8h20.3z"/><path class="l" d="m983.4-1450.2c-0.2-0.2-5-4-5-10.9 0-6.8 4.8-10.6 5-10.8l1.1 1.4c-0.1 0.1-4.3 3.5-4.3 9.4 0 6.1 4.2 9.4 4.3 9.5z"/><path class="l" d="m985.8-1450.2l-1.1-1.4c0-0.1 4.2-3.5 4.2-9.5 0-6-4.2-9.3-4.2-9.4l1.1-1.4c0.2 0.2 4.9 4 4.9 10.8 0 6.9-4.7 10.7-4.9 10.9z"/><path class="l" d="m984.6-1463.4c-6.7 0-8.6-3.6-8.7-3.8l1.6-0.8-0.8 0.4 0.8-0.4c0.1 0.1 1.6 2.8 7.1 2.8 5.5 0 7-2.7 7-2.8l1.6 0.8c0 0.2-1.9 3.8-8.6 3.8z"/><path class="l" d="m977.5-1454.1l-1.6-0.8c0.1-0.2 2-3.8 8.7-3.8 6.7 0 8.6 3.6 8.6 3.8l-1.6 0.8c0-0.1-1.5-2.8-7-2.8-5.5 0-7 2.7-7.1 2.8z"/><text style="transform:matrix(4,0,0,4,1137.074,-2193.73)" ><tspan x="-98.7" y="0" class="at">WHITE PVC STICKER
</tspan><tspan x="-58.2" y="22.2" class="at">6.4 x 6.4 cm
</tspan></text><path class="c" d="m119.9 195.2c0.7 0.5 1.9 1.5 3.7 2.7 2.7 1.8 6.4 4 10.7 5.7 4.3 1.7 9.2 3 14.1 3q0.3 0 0.7 0c1.2-0.1 2.7-0.5 4.4-1.1 2.5-1 5.5-2.5 8.5-3.9 3-1.5 6-3 8.9-3.9 1.7-0.6 6.2-1.9 11.8-1.9 3.5 0 7.4 0.5 11.4 2 5 1.9 10.2 4 14.8 5.7 4.7 1.8 8.9 3.4 11.7 4.1 2.9 0.7 5.8 1.2 8.7 1.2 3.3 0 6.7-0.6 10.5-2.5 3.6-1.8 9-4.8 14.7-7.3 2.8-1.3 5.8-2.4 8.7-3.3 2.9-0.8 5.7-1.4 8.4-1.4q0.2 0 0.5 0c2.6 0.1 5.5 0.7 8.5 1.5 4.5 1.3 9.4 3.2 14.3 5.1 4.9 2 9.9 4 14.7 5.5 2.5 0.7 4.9 1.1 7.3 1.1 4.9 0 9.6-1.4 13.6-2.9 1.9-0.8 3.7-1.6 5.2-2.4 1.5-0.8 2.7-1.5 3.6-2q1.3-0.7 3.4-1.3c4.1-1.2 10.2-2.2 16.3-2.2 3.2 0 6.4 0.3 9.3 0.9 4.9 1.1 10.5 3.4 16 5.3 2.7 1 5.3 1.9 7.8 2.6 2.4 0.6 4.7 1 6.5 1q0.5 0 0.9 0c2.3-0.1 7.4-0.9 13-2.8 5.5-1.9 11.6-5 16-9.8l1.5 1.4c-4.7 5.2-11.1 8.4-16.8 10.4-5.9 2-11 2.7-13.5 2.9l-0.1-1.1 0.1 1.1q-0.5 0-1.1 0c-2.1 0-4.5-0.4-7.1-1.1-3.8-1-8-2.6-12.1-4.1-4.1-1.5-8.1-2.9-11.5-3.7-2.8-0.6-5.8-0.9-8.9-0.9-3.9 0-7.9 0.4-11.2 1.1-1.7 0.3-3.2 0.6-4.5 1-1.3 0.4-2.3 0.8-3 1.2-0.8 0.4-2.1 1.2-3.6 2-4.7 2.3-11.9 5.4-19.8 5.5-2.6 0-5.2-0.4-7.9-1.2-6.5-2-13.3-5-19.7-7.4-3.3-1.2-6.4-2.4-9.3-3.2-2.9-0.8-5.6-1.3-8-1.4q-0.2 0-0.4 0c-2.4 0-5.1 0.5-7.8 1.3-4.2 1.2-8.6 3.2-12.6 5.1-4 2-7.7 4-10.5 5.4-4 2-7.8 2.7-11.4 2.7-3.2 0-6.3-0.6-9.1-1.3-3.1-0.7-7.3-2.3-12-4.1-4.7-1.8-9.9-3.9-14.8-5.7-3.7-1.4-7.4-1.9-10.7-1.9-5.3 0-9.6 1.2-11.2 1.7-3.5 1.2-7.6 3.4-11.6 5.3-1.9 1-3.9 1.9-5.7 2.6-1.8 0.6-3.5 1.1-5 1.2q-0.4 0-0.8 0c-7 0-13.8-2.4-19.1-5.1-2.7-1.3-5-2.7-6.8-4-1.9-1.2-3.2-2.2-4-2.8z"/><path class="c" d="m119.9 202.6c0.7 0.5 1.9 1.5 3.7 2.7 2.7 1.8 6.4 3.9 10.7 5.7 4.3 1.7 9.2 3 14.1 3q0.3 0 0.7 0c1.2-0.1 2.7-0.5 4.4-1.1 2.5-1 5.5-2.5 8.5-4 3-1.4 6-2.9 8.9-3.8 1.7-0.6 6.2-1.9 11.8-1.9 3.5 0 7.4 0.5 11.4 2 5 1.9 10.2 4 14.8 5.8 4.7 1.8 8.9 3.3 11.7 4 2.9 0.7 5.8 1.2 8.7 1.2 3.3 0 6.7-0.6 10.5-2.5 3.6-1.8 9-4.8 14.7-7.3 2.8-1.3 5.8-2.4 8.7-3.3 2.9-0.8 5.7-1.4 8.4-1.4q0.2 0 0.5 0c2.6 0.1 5.5 0.7 8.5 1.5 4.5 1.3 9.4 3.2 14.3 5.1 4.9 2 9.9 4 14.7 5.5 2.5 0.8 4.9 1.1 7.3 1.1 4.9 0 9.6-1.3 13.6-2.9 1.9-0.8 3.7-1.6 5.2-2.4 1.5-0.8 2.7-1.5 3.6-1.9q1.3-0.8 3.4-1.4c4.1-1.2 10.2-2.2 16.3-2.2 3.2 0 6.4 0.3 9.3 0.9 4.9 1.1 10.5 3.4 16 5.4 2.7 0.9 5.3 1.8 7.8 2.5 2.4 0.6 4.7 1 6.6 1q0.4 0 0.8 0c2.3-0.1 7.4-0.9 13-2.8 5.5-1.9 11.6-5 16-9.8l1.5 1.4c-4.7 5.2-11.1 8.4-16.8 10.4-5.8 2-11 2.7-13.5 2.9q-0.5 0-1 0c-2.2 0-4.6-0.4-7.2-1.1-3.8-1-8-2.6-12-4.1-4.1-1.5-8.2-3-11.6-3.7-2.8-0.6-5.8-0.9-8.9-0.9-3.9 0-7.9 0.4-11.2 1.1-1.7 0.3-3.2 0.6-4.5 1-1.3 0.4-2.3 0.8-3 1.2-0.8 0.5-2.1 1.2-3.6 2-4.6 2.3-11.9 5.5-19.8 5.5-2.6 0-5.2-0.4-7.9-1.2-6.5-2-13.3-5-19.7-7.4-3.3-1.3-6.4-2.4-9.3-3.2-2.9-0.8-5.6-1.3-8-1.4q-0.2 0-0.4 0c-2.4 0-5.1 0.5-7.8 1.3-4.2 1.2-8.6 3.2-12.6 5.1-4 2-7.7 4-10.5 5.4-4 2-7.8 2.7-11.4 2.7-3.2 0-6.3-0.6-9.1-1.3-3.1-0.8-7.3-2.3-12-4.1-4.7-1.8-9.9-3.9-14.8-5.7-3.7-1.4-7.4-1.9-10.7-1.9-5.3 0-9.6 1.2-11.2 1.7-3.5 1.2-7.6 3.4-11.6 5.3-1.9 1-3.9 1.9-5.7 2.6-1.8 0.6-3.5 1.1-5 1.2q-0.4 0-0.8 0c-7 0-13.8-2.4-19.1-5.1-2.7-1.3-5-2.7-6.8-4-1.9-1.2-3.2-2.2-4-2.8z"/><path class="c" d="m119.9 210c0.7 0.5 1.9 1.5 3.7 2.7 2.7 1.8 6.4 4 10.7 5.7 4.3 1.7 9.2 3 14.1 3q0.4 0 0.7 0c1.2 0 2.7-0.5 4.4-1.1 2.5-1 5.5-2.5 8.5-4 3-1.4 6-2.9 8.9-3.9 1.7-0.5 6.2-1.8 11.8-1.8 3.5 0 7.5 0.5 11.4 2 5 1.9 10.2 4 14.8 5.8 4.7 1.8 8.9 3.3 11.7 4 2.9 0.7 5.8 1.2 8.7 1.2 3.3 0 6.7-0.6 10.5-2.5 3.6-1.8 9-4.8 14.7-7.3 2.8-1.3 5.8-2.4 8.7-3.3 2.9-0.8 5.7-1.4 8.4-1.4q0.2 0 0.5 0c2.6 0.1 5.5 0.7 8.5 1.5 4.5 1.3 9.4 3.2 14.3 5.1 4.9 2 10 4 14.7 5.5 2.5 0.8 4.9 1.1 7.3 1.1 4.9 0 9.6-1.3 13.6-2.9 1.9-0.8 3.7-1.6 5.2-2.4 1.5-0.8 2.7-1.5 3.6-2q1.3-0.7 3.4-1.3c4.1-1.2 10.2-2.2 16.3-2.2 3.2 0 6.4 0.3 9.3 0.9 4.9 1.1 10.5 3.4 16 5.3 2.7 1 5.3 1.9 7.8 2.6 2.4 0.6 4.7 1.1 6.5 1q0.5 0 0.9 0c2.3-0.1 7.4-0.9 13-2.8 5.5-1.9 11.6-5 16-9.8l1.5 1.5c-4.7 5.1-11.1 8.3-16.8 10.3-5.9 2-11 2.7-13.5 2.9l-0.1-1 0.1 1q-0.5 0-1.1 0c-2.1 0-4.5-0.4-7.1-1.1-3.8-1-8-2.6-12.1-4.1-4-1.5-8.1-3-11.5-3.7-2.8-0.6-5.8-0.9-8.9-0.9-3.9 0-7.9 0.4-11.2 1-1.7 0.4-3.2 0.7-4.5 1.1-1.3 0.4-2.3 0.8-3 1.2-0.8 0.5-2.1 1.2-3.6 2-4.6 2.3-11.9 5.5-19.8 5.5-2.5 0-5.2-0.4-7.9-1.2-6.5-2-13.3-5-19.7-7.4-3.3-1.3-6.4-2.3-9.3-3.2-2.9-0.8-5.6-1.3-8-1.4q-0.2 0-0.4 0c-2.4 0-5.1 0.5-7.8 1.3-4.2 1.2-8.6 3.2-12.6 5.1-4 2-7.7 4-10.5 5.4-4 2-7.8 2.7-11.4 2.7-3.2 0-6.3-0.6-9.1-1.3-3.1-0.8-7.3-2.3-12-4.1-4.7-1.8-9.9-3.9-14.8-5.7-3.7-1.4-7.4-1.9-10.7-1.9-5.3 0-9.6 1.2-11.2 1.8v-0.1c-3.5 1.2-7.6 3.4-11.6 5.3-1.9 1-3.9 1.9-5.7 2.6-1.8 0.6-3.5 1.1-5 1.2q-0.4 0-0.8 0c-7 0-13.8-2.4-19.1-5.1-2.7-1.3-5-2.7-6.8-3.9-1.9-1.3-3.2-2.3-4-2.9z"/><path class="c" d="m119.9 217.4c0.7 0.5 1.9 1.5 3.7 2.7 2.7 1.8 6.4 3.9 10.7 5.7 4.3 1.7 9.2 3 14.1 3q0.3 0 0.7 0c1.2-0.1 2.7-0.5 4.4-1.1 2.5-1 5.5-2.5 8.5-3.9 3-1.5 6-3 8.9-3.9 1.7-0.6 6.2-1.9 11.8-1.9 3.5 0 7.4 0.5 11.4 2 5 1.9 10.2 4 14.8 5.7 4.7 1.8 8.9 3.4 11.7 4.1 2.9 0.7 5.8 1.2 8.7 1.2 3.3 0 6.7-0.6 10.5-2.5 3.6-1.8 9-4.8 14.7-7.3 2.8-1.3 5.8-2.4 8.7-3.3 2.9-0.8 5.7-1.4 8.4-1.4q0.2 0 0.5 0c2.6 0.1 5.5 0.7 8.5 1.5 4.5 1.3 9.4 3.2 14.3 5.1 4.9 2 10 4 14.7 5.5 2.5 0.8 4.9 1.1 7.3 1.1 4.9 0 9.6-1.3 13.6-2.9 1.9-0.8 3.7-1.6 5.2-2.4 1.5-0.8 2.7-1.5 3.6-2q1.3-0.7 3.4-1.3c4.1-1.2 10.2-2.2 16.3-2.2 3.2 0 6.4 0.3 9.3 0.9 4.9 1.1 10.5 3.4 16 5.3 2.7 1 5.3 1.9 7.8 2.6 2.4 0.6 4.7 1 6.6 1q0.4 0 0.8 0c2.3-0.1 7.4-0.9 13-2.8 5.5-1.9 11.6-5 16-9.8l1.5 1.4c-4.7 5.2-11.1 8.4-16.8 10.4-5.8 2-11 2.7-13.5 2.9l-0.1-1 0.1 1q-0.5 0-1 0c-2.2 0-4.6-0.4-7.2-1.1-3.8-1-8-2.6-12.1-4.1-4-1.5-8.1-2.9-11.5-3.7-2.8-0.6-5.8-0.9-8.9-0.9-3.9 0-7.9 0.4-11.2 1.1-1.7 0.3-3.2 0.6-4.5 1-1.3 0.4-2.3 0.8-3 1.2-0.8 0.5-2.1 1.2-3.6 2-4.6 2.3-11.9 5.5-19.8 5.5-2.5 0-5.2-0.4-7.9-1.2-6.5-2-13.3-5-19.7-7.4-3.3-1.3-6.4-2.4-9.3-3.2-2.9-0.8-5.6-1.3-8-1.4q-0.2 0-0.4 0c-2.4 0-5.1 0.5-7.8 1.3-4.2 1.2-8.6 3.2-12.6 5.1-4 2-7.7 4-10.5 5.4-4 2-7.8 2.7-11.4 2.7-3.2 0-6.3-0.6-9.1-1.3-3.1-0.7-7.3-2.3-12-4.1-4.7-1.8-9.9-3.9-14.8-5.7-3.7-1.4-7.4-1.9-10.7-1.9-5.3 0-9.6 1.2-11.2 1.8-3.5 1.1-7.6 3.3-11.6 5.2-1.9 1-3.9 1.9-5.7 2.6-1.8 0.7-3.5 1.1-5 1.2q-0.4 0-0.8 0c-7 0-13.8-2.4-19.1-5.1-2.7-1.3-5-2.7-6.8-3.9-1.9-1.3-3.2-2.3-4-2.9z"/><path class="c" d="m119.9 224.8c0.7 0.5 1.9 1.5 3.7 2.7 2.7 1.8 6.4 4 10.7 5.7 4.3 1.7 9.2 3 14.1 3q0.4 0 0.7 0c1.2-0.1 2.7-0.4 4.4-1.1 2.5-1 5.5-2.5 8.5-4 3-1.4 6-2.9 8.9-3.9 1.7-0.5 6.2-1.8 11.8-1.8 3.5 0 7.4 0.5 11.4 2 5 1.9 10.2 4 14.8 5.7 4.7 1.9 8.9 3.4 11.7 4.1 2.9 0.7 5.8 1.2 8.7 1.2 3.3 0 6.7-0.6 10.5-2.5 3.6-1.8 9-4.8 14.7-7.3 2.8-1.3 5.8-2.4 8.7-3.3 2.9-0.8 5.7-1.4 8.4-1.4q0.2 0 0.5 0c2.6 0.1 5.5 0.7 8.5 1.5 4.5 1.3 9.4 3.2 14.3 5.1 4.9 2 9.9 4 14.7 5.5 2.5 0.8 4.9 1.1 7.3 1.1 4.9 0 9.6-1.3 13.6-2.9 2-0.8 3.7-1.6 5.2-2.4 1.5-0.8 2.7-1.5 3.6-1.9q1.3-0.8 3.4-1.4c4.1-1.2 10.2-2.2 16.3-2.2 3.2 0 6.4 0.3 9.3 0.9 4.9 1.1 10.5 3.4 16 5.3 2.7 1 5.3 1.9 7.8 2.6 2.4 0.6 4.7 1 6.5 1q0.5 0 0.9 0c2.3-0.1 7.4-0.9 13-2.8 5.5-1.9 11.6-5 16-9.8l1.5 1.5c-4.7 5.1-11.1 8.3-16.8 10.3-5.8 2-11 2.7-13.5 2.9l-0.1-1.1 0.1 1.1q-0.5 0-1.1 0c-2.1 0-4.5-0.4-7.1-1.1-3.8-1-8-2.6-12.1-4.1-4-1.5-8.1-3-11.5-3.7-2.8-0.6-5.8-0.9-8.9-0.9-3.9 0-7.9 0.4-11.2 1.1-1.7 0.3-3.2 0.6-4.5 1-1.3 0.4-2.3 0.8-3 1.2-0.8 0.5-2.1 1.2-3.6 2-4.6 2.3-11.8 5.5-19.8 5.5-2.5 0-5.2-0.4-7.9-1.2-6.5-2-13.3-5-19.7-7.4-3.3-1.2-6.4-2.4-9.3-3.2-2.9-0.8-5.6-1.3-8-1.4q-0.2 0-0.4 0c-2.4 0-5.1 0.5-7.8 1.3-4.2 1.2-8.6 3.2-12.6 5.1-4 2-7.7 4-10.5 5.4-4 2-7.8 2.7-11.4 2.7-3.2 0-6.3-0.6-9.1-1.3-3.1-0.7-7.3-2.3-12-4.1-4.7-1.8-9.9-3.9-14.8-5.7-3.7-1.4-7.4-1.9-10.7-1.9-5.3 0-9.6 1.2-11.2 1.8-3.5 1.1-7.6 3.3-11.6 5.2-1.9 1-3.9 1.9-5.7 2.6-1.8 0.7-3.5 1.1-5 1.2q-0.4 0-0.8 0c-7 0-13.8-2.4-19.1-5.1-2.7-1.3-5-2.7-6.8-3.9-1.9-1.3-3.2-2.3-4-2.9z"/><path fill-rule="evenodd" class="d" d="m339.9 136.3c-47.9 0-91.3 0-91.3 0v53.6h-66.5v-173.2c0 0 141.4 0 156.4 0 6.9 0 49.6 7.4 56.3 53.5 5.5 38.2-31 66.1-54.9 66.1zm24.3-60c0-25.6-33.6-46.3-75.1-46.3-41.6 0-75.2 20.7-75.2 46.3 0 25.6 33.6 46.4 75.2 46.4 41.5 0 75.1-20.8 75.1-46.4z"/><g clip-path="url(#cp5)"><path class="d" d="m210 74.9h162.9v4.2h-162.9"/><path class="d" d="m290.7 24.3v105.5h-4.1v-105.5"/><path class="d" d="m250.3 32.6c0.2 0.5 0.7 1.1 1.4 1.8 1.2 1.2 3.1 2.5 5.5 3.8 3.7 1.9 8.6 3.7 14 5 5.4 1.4 11.5 2.2 17.5 2.4q0.5 0 1 0c8 0 16-2.2 22.9-4.8 6.8-2.6 12.3-5.7 15.1-7.5l2.2 3.6c-3 1.9-8.8 5.1-15.9 7.8-7.1 2.8-15.6 5.1-24.3 5.1q-0.5 0-1.1 0c-9.7-0.3-19.2-2.3-26.8-5-3.7-1.4-7-3-9.6-4.7q-2-1.3-3.4-2.7c-1-1-1.7-2-2.2-3.1z"/><path class="d" d="m230.9 44.9h-0.2 0.2-0.2 0.2c0 0 0.1 0.2 0.3 0.4 0.4 0.5 1.2 1.1 2.1 2 3.3 2.9 9.8 7.6 19.2 11.5 9.3 3.9 21.4 7.1 36.1 7.1 8.7 0 19.7-1.5 30.5-5.1 10.7-3.5 21.1-9.1 28.6-16.8l2.9 2.9c-8.1 8.4-19.1 14.2-30.3 17.9-11.2 3.7-22.6 5.3-31.7 5.3-18.7 0-33.5-5-43.8-10.3-5.2-2.6-9.2-5.4-12.1-7.6q-2.2-1.8-3.5-3c-0.4-0.4-0.8-0.8-1.1-1.1q-0.2-0.3-0.4-0.5-0.1-0.2-0.3-0.5z"/><path class="d" d="m328 120.5c-0.2-0.5-0.6-1.2-1.3-1.9-1.2-1.2-3.2-2.5-5.6-3.8-3.7-1.9-8.6-3.7-14-5-5.4-1.3-11.4-2.2-17.5-2.4q-0.5 0-1 0c-7.9 0-16 2.2-22.8 4.8-6.9 2.7-12.4 5.7-15.2 7.5l-2.2-3.6c3.1-1.9 8.8-5 15.9-7.8 7.1-2.7 15.6-5 24.3-5.1q0.6 0.1 1.1 0.1c9.7 0.2 19.3 2.2 26.8 5 3.8 1.4 7.1 3 9.7 4.7q1.9 1.2 3.3 2.7c1 0.9 1.8 1.9 2.3 3z"/><path class="d" d="m347.4 108.1c0 0-0.1-0.2-0.4-0.4-0.4-0.5-1.1-1.2-2-2-3.4-3-9.9-7.6-19.2-11.5-9.3-3.9-21.4-7.1-36.1-7.1-8.6 0-19.7 1.6-30.5 5.1-10.7 3.6-21.1 9.1-28.6 16.8l-2.9-2.9c8.1-8.4 19.1-14.1 30.3-17.8 11.2-3.7 22.6-5.4 31.7-5.4 18.7 0 33.5 5 43.9 10.3 5.1 2.7 9.2 5.4 12 7.7 1.5 1.1 2.6 2.1 3.5 3q0.6 0.6 1.1 1.1c0.2 0.1 0.3 0.3 0.4 0.4 0.1 0.2 0.2 0.3 0.3 0.5z"/></g><path fill-rule="evenodd" class="d" d="m163.7 325.7l9.4-67.3h26q16.6 0 23.8 5.7 7.2 5.7 5.5 17.6-1.4 10-10 15.8-8.6 5.8-22.2 5.8h-5l-3.1 22.4zm31.8-52.9l-2.1 14.9q5.7-0.1 8.5-1.8 2.9-1.8 3.4-5.6 0.6-3.7-1.7-5.6-2.2-1.9-7.1-1.9z"/><path fill-rule="evenodd" class="d" d="m228.4 325.7l9.4-67.3h28.1q14.2 0 21.7 5.6 7.4 5.6 6 15.2-0.8 5.9-5.1 10-4.2 4.2-12 6.7l13.2 29.8h-25.9l-7.4-26-3.6 26zm31.9-53.3l-2.3 16q5-0.1 7.5-2 2.6-1.9 3.2-6 0.5-4-1.3-6-1.9-2-6.1-2z"/><path fill-rule="evenodd" class="d" d="m297.1 292.1q2.3-16.7 12.2-25.8 9.9-9.2 25.4-9.2 15.6 0 22.8 9.1 7.2 9.2 4.9 25.9-2.4 16.7-12.2 25.8-9.7 9.2-25.3 9.2-15.6 0-22.9-9.2-7.3-9.1-4.9-25.8zm24.7-0.4q-1.5 10.5-0.2 14.3 1.2 3.9 5.7 3.9 4.4 0 6.8-3.8 2.2-3.8 3.7-14.4 1.5-10.6 0.3-14.5-1.2-3.8-5.7-3.8-4.4 0-6.8 3.9-2.3 3.9-3.8 14.4z"/><path class="d" d="m364.7 325.7l9.4-67.3h43.3l-2.3 16.4h-18.9l-1.4 9.7h16.6l-2.2 15.8h-16.6l-3.6 25.4z"/><path class="c" d="m414.3 325.7l9.5-67.3h43.4l-2.4 16.4h-18.8l-1.2 8.5h17l-2.2 15.8h-17l-1.3 9.2h18.8l-2.4 17.4z"/><path class="c" d="m466.2 325.7l9.5-67.3h24.3l8.5 35.4 5-35.4h22.1l-9.4 67.3h-24.1l-8.8-33.7-4.7 33.7z"/><path class="a1" d="m21.1 382l7.2-36.1h25.8l-1.2 6h-18.6l-1.7 8.2h18l-1.2 6.1h-18l-2.2 9.8h20.3l-1.3 6z"/><path class="a1" d="m83.7 382h-6.6l-9.4-24.3-4.9 24.3h-6.7l7.3-36.1h6.7l9.4 24.1 4.8-24.1h6.7z"/><path class="a1" d="m112.8 362.7h15.6l-3.2 15.5q-2.7 1.8-6.7 3.1-4 1.3-8.2 1.3-6.4 0-9.9-3-4.7-4.2-4.7-12 0-5.3 2.1-10.1 2.4-5.8 6.8-9 4.5-3.2 10.5-3.2 6.1 0 9.7 2.9 3.6 2.9 4.8 8.5l-6.6 0.7q-0.9-3-2.9-4.6-1.9-1.5-4.9-1.5-3.5 0-6.4 1.9-2.9 1.8-4.5 5.7-1.6 4-1.6 8.6 0 4.5 2 6.7 2 2.2 5.8 2.2 2.3 0 4.7-0.7 2.4-0.7 4.2-1.6l1.1-5.4h-8.9z"/><path class="a1" d="m133.4 382l7.2-36.1h7.2l-7.3 36.1z"/><path class="a1" d="m177.4 382h-6.7l-9.3-24.3-4.9 24.3h-6.7l7.3-36.1h6.6l9.5 24.1 4.8-24.1h6.7z"/><path class="a1" d="m187.1 382l7.3-36.1h25.8l-1.2 6h-18.6l-1.7 8.2h18l-1.2 6.1h-18l-2.2 9.8h20.2l-1.2 6z"/><path class="a1" d="m222 382l7.2-36.1h25.8l-1.2 6h-18.6l-1.7 8.2h18.1l-1.3 6.1h-18l-2.2 9.8h20.3l-1.2 6z"/><path fill-rule="evenodd" class="a1" d="m264.1 382h-7.1l7.3-36.1h15.4q4 0 6.2 0.8 2.2 0.9 3.6 3.2 1.4 2.2 1.4 5.5 0 4.6-2.7 7.5-2.7 3-8 3.8 1.3 1.2 2.5 3.3 2.4 4.3 5.4 12h-7.7q-0.9-3.1-3.6-9.5-1.5-3.5-3.2-4.7-1-0.8-3.5-0.8h-2.9zm4.1-20.3h3.8q5.7 0 7.6-0.7 1.9-0.7 3-2.3 1-1.5 1-3.2 0-1.9-1.5-2.9-1-0.6-4.1-0.6h-7.9z"/><path class="a1" d="m294 382l7.3-36.1h7.2l-7.3 36.1z"/><path class="a1" d="m338.1 382h-6.7l-9.4-24.3-4.9 24.3h-6.6l7.2-36.1h6.7l9.5 24.1 4.8-24.1h6.7z"/><path class="a1" d="m367.2 362.7h15.6l-3.2 15.5q-2.7 1.8-6.7 3.1-4 1.3-8.2 1.3-6.4 0-9.9-3-4.7-4.2-4.7-12 0-5.3 2-10.1 2.5-5.8 6.9-9 4.5-3.2 10.5-3.2 6 0 9.7 2.9 3.6 2.9 4.8 8.5l-6.7 0.7q-0.8-3-2.8-4.6-1.9-1.5-4.9-1.5-3.5 0-6.4 1.9-2.9 1.8-4.5 5.7-1.6 4-1.6 8.6 0 4.5 1.9 6.7 2 2.2 5.9 2.2 2.3 0 4.7-0.7 2.4-0.7 4.2-1.6l1.1-5.4h-8.9z"/><path class="a1" d="m404.2 382l7.3-36.1h7.1l-6 30.1h17.7l-1.2 6z"/><path class="a1" d="m437.6 375.2h6.8l-1.4 6.8h-6.8z"/><path class="a1" d="m452.2 382l7.3-36.1h7.2l-6.1 30.1h17.7l-1.2 6z"/><path class="a1" d="m485.7 375.2h6.7l-1.4 6.8h-6.7z"/><path class="a1" d="m525.3 369l7.2 1.1q-2.1 6.1-6.3 9.3-4.3 3.2-9.9 3.2-6.4 0-10-4-3.6-3.9-3.6-11.5 0-6.2 2.4-11.3 2.4-5.1 6.7-7.8 4.3-2.7 9.3-2.7 5.6 0 9.1 3.1 3.5 3.2 4.1 8.6l-6.8 0.7q-0.6-3.2-2.2-4.6-1.6-1.4-4.4-1.4-2.9 0-5.5 1.9-2.6 1.8-4.1 5.8-1.6 4-1.5 7.9-0.1 4.4 2 6.7 2 2.4 5 2.4 2.7 0 5-1.9 2.4-1.8 3.5-5.5z"/><path fill-rule="evenodd" class="c" d="m19.5 412.3h-3.6l3.7-18h7.1q1.8 0 2.9 0.5 1.1 0.4 1.8 1.5 0.6 1.1 0.6 2.5 0 1.4-0.5 2.7-0.5 1.3-1.2 2.1-0.8 0.7-1.6 1.1-0.9 0.4-2.3 0.6-0.9 0.2-3.2 0.2h-2.3zm2-9.9h1.1q2.8 0 3.8-0.4 0.9-0.3 1.5-1.2 0.5-0.8 0.5-1.7 0-0.7-0.2-1.1-0.3-0.4-0.8-0.6-0.5-0.2-2.3-0.2h-2.5z"/><path fill-rule="evenodd" class="c" d="m49.7 412.3h-3.6l3.7-18h7.7q2 0 3.1 0.4 1.1 0.5 1.8 1.6 0.7 1.1 0.7 2.7 0 2.3-1.3 3.8-1.4 1.5-4.1 1.9 0.7 0.6 1.3 1.7 1.2 2.1 2.7 5.9h-3.8q-0.5-1.5-1.9-4.7-0.7-1.8-1.5-2.4-0.5-0.3-1.8-0.3h-1.5zm2.1-10.2h1.9q2.9 0 3.8-0.4 1-0.3 1.5-1.1 0.5-0.7 0.5-1.6 0-1-0.8-1.5-0.4-0.3-2-0.3h-3.9z"/><path fill-rule="evenodd" class="c" d="m78.6 405.3q0-1.6 0.5-3.4 0.6-2.4 1.9-4.1 1.2-1.8 3.1-2.8 1.9-1 4.3-1 3.2 0 5.2 2.1 2 2.1 2 5.5 0 2.8-1.3 5.5-1.3 2.7-3.5 4.1-2.3 1.5-5 1.5-2.5 0-4.1-1.2-1.7-1.1-2.4-2.8-0.7-1.7-0.7-3.4zm3.6-0.1q0 1.9 1.1 3.1 1.1 1.3 2.8 1.3 1.5 0 2.8-1 1.4-1 2.2-3 0.9-2 0.9-3.9 0-2.2-1.1-3.4-1.1-1.2-2.8-1.2-2.6 0-4.3 2.5-1.6 2.6-1.6 5.6z"/><path class="c" d="m110.3 412.3l3.6-18h12.2l-0.6 3h-8.6l-0.9 4.4h8.4l-0.6 3h-8.4l-1.5 7.6z"/><path class="c" d="m139.1 412.3l3.6-18h12.9l-0.6 3h-9.3l-0.9 4.1h9l-0.6 3h-9l-1.1 4.9h10.2l-0.7 3z"/><path class="c" d="m169.7 406.5l3.4-0.2q0.1 1.7 0.6 2.3 0.8 1 2.9 1 1.7 0 2.5-0.7 0.8-0.7 0.8-1.6 0-0.8-0.6-1.3-0.5-0.4-2.5-1.3-2-1-3-1.6-0.9-0.6-1.4-1.5-0.6-1-0.6-2.3 0-2.3 1.6-3.8 1.6-1.5 4.6-1.5 3.1 0 4.8 1.5 1.6 1.5 1.8 3.9l-3.4 0.2q-0.2-1.3-0.9-2-0.8-0.7-2.3-0.7-1.5 0-2.1 0.6-0.7 0.5-0.7 1.3 0 0.8 0.6 1.3 0.6 0.5 2.6 1.4 3 1.4 3.8 2.2 1.2 1.2 1.2 3.2 0 2.4-1.8 4.1-1.8 1.7-5 1.7-2.3 0-3.9-0.8-1.7-0.8-2.4-2.2-0.6-1.4-0.6-3.2z"/><path class="c" d="m199.8 406.5l3.4-0.2q0.1 1.7 0.6 2.3 0.8 1 2.9 1 1.7 0 2.5-0.7 0.8-0.7 0.8-1.6 0-0.8-0.6-1.3-0.5-0.4-2.5-1.3-2-1-3-1.6-0.9-0.6-1.4-1.5-0.6-1-0.6-2.3 0-2.3 1.6-3.8 1.6-1.5 4.6-1.5 3.1 0 4.8 1.5 1.6 1.5 1.8 3.9l-3.4 0.2q-0.1-1.3-0.9-2-0.8-0.7-2.3-0.7-1.5 0-2.1 0.6-0.6 0.5-0.6 1.3 0 0.8 0.5 1.3 0.6 0.5 2.6 1.4 3 1.4 3.8 2.2 1.3 1.2 1.3 3.2 0 2.4-1.9 4.1-1.8 1.7-5 1.7-2.3 0-3.9-0.8-1.7-0.8-2.3-2.2-0.7-1.4-0.7-3.2z"/><path class="c" d="m229.2 412.3l3.7-18h3.5l-3.6 18z"/><path fill-rule="evenodd" class="c" d="m251.2 405.3q0-1.6 0.4-3.4 0.6-2.4 1.9-4.1 1.2-1.8 3.1-2.8 1.9-1 4.3-1 3.2 0 5.2 2.1 2 2.1 2 5.5 0 2.8-1.3 5.5-1.3 2.7-3.5 4.1-2.2 1.5-5 1.5-2.5 0-4.1-1.2-1.7-1.1-2.3-2.8-0.7-1.7-0.7-3.4zm3.5-0.1q0 1.9 1.1 3.1 1.1 1.3 2.9 1.3 1.4 0 2.7-1 1.4-1 2.3-3 0.8-2 0.8-3.9 0-2.2-1.1-3.4-1.1-1.2-2.8-1.2-2.6 0-4.3 2.5-1.6 2.6-1.6 5.6z"/><path class="c" d="m296.7 412.3h-3.3l-4.7-12.1-2.4 12.1h-3.4l3.7-18h3.3l4.7 12.1 2.5-12.1h3.3z"/><path fill-rule="evenodd" class="c" d="m325.7 408.4h-6.9l-2.1 3.9h-3.7l9.9-18h3.9l2.9 18h-3.4zm-0.5-3l-1-7.2-4.2 7.2z"/><path class="c" d="m345.8 412.3l3.7-18h3.5l-3 15h8.9l-0.6 3z"/><path class="d" d="m379.5 412.3l3.6-18h12.9l-0.6 3h-9.3l-0.8 4.1h9l-0.6 3h-9l-1.1 4.9h10.1l-0.6 3z"/><path class="d" d="m411.2 412.3h-3.4l-4.7-12.1-2.4 12.1h-3.4l3.7-18h3.3l4.7 12.1 2.5-12.1h3.3z"/><path class="d" d="m426 402.7h7.8l-1.5 7.8q-1.4 0.9-3.4 1.5-2 0.7-4.1 0.7-3.2 0-4.9-1.6-2.4-2-2.4-6 0-2.6 1-5 1.2-2.9 3.5-4.5 2.2-1.6 5.2-1.6 3 0 4.8 1.4 1.9 1.5 2.4 4.3l-3.3 0.4q-0.4-1.6-1.4-2.3-1-0.8-2.5-0.8-1.7 0-3.1 0.9-1.5 1-2.3 2.9-0.8 2-0.8 4.3 0 2.3 1 3.4 1 1.1 2.9 1.1 1.1 0 2.3-0.4 1.3-0.3 2.1-0.8l0.6-2.7h-4.5z"/><path class="d" d="m436.7 412.3l3.6-18h3.6l-3.7 18z"/><path class="d" d="m459 412.3h-3.3l-4.7-12.1-2.5 12.1h-3.3l3.6-18h3.4l4.7 12.1 2.4-12.1h3.4z"/><path class="d" d="m464.2 412.3l3.7-18h12.9l-0.7 3h-9.3l-0.8 4.1h9l-0.6 3h-9l-1.1 4.9h10.1l-0.6 3z"/><path class="d" d="m482 412.3l3.6-18h12.9l-0.6 3h-9.3l-0.8 4.1h9l-0.6 3h-9l-1.1 4.9h10.1l-0.6 3z"/><path fill-rule="evenodd" class="d" d="m503.4 412.3h-3.6l3.7-18h7.7q2 0 3.1 0.4 1.1 0.5 1.8 1.6 0.7 1.1 0.7 2.7 0 2.3-1.4 3.8-1.3 1.5-4 1.9 0.7 0.6 1.3 1.7 1.2 2.1 2.7 5.9h-3.9q-0.4-1.5-1.8-4.7-0.7-1.8-1.5-2.4-0.6-0.3-1.8-0.3h-1.5zm2.1-10.2h1.9q2.8 0 3.8-0.4 0.9-0.3 1.5-1.1 0.5-0.7 0.5-1.6 0-1-0.8-1.5-0.4-0.3-2-0.3h-4z"/><path class="d" d="m519.4 406.5l3.4-0.2q0.1 1.7 0.6 2.3 0.7 1 2.9 1 1.7 0 2.5-0.7 0.8-0.7 0.8-1.6 0-0.8-0.7-1.3-0.4-0.4-2.4-1.3-2.1-1-3-1.6-0.9-0.6-1.5-1.5-0.5-1-0.5-2.3 0-2.3 1.6-3.8 1.6-1.5 4.6-1.5 3.1 0 4.7 1.5 1.7 1.5 1.9 3.9l-3.4 0.2q-0.2-1.3-0.9-2-0.8-0.7-2.3-0.7-1.5 0-2.1 0.6-0.7 0.5-0.7 1.3 0 0.8 0.6 1.3 0.6 0.5 2.6 1.4 3 1.4 3.8 2.2 1.2 1.2 1.2 3.2 0 2.4-1.8 4.1-1.8 1.7-5.1 1.7-2.2 0-3.9-0.8-1.6-0.8-2.3-2.2-0.7-1.4-0.6-3.2z"/><path class="a" d="m2485.1-1737.9c0 200.4-162.5 362.8-362.9 362.8-200.3 0-362.8-162.4-362.8-362.8 0-200.4 162.5-362.9 362.8-362.9 200.4 0 362.9 162.5 362.9 362.9z"/><path class="c" d="m1967.9-1826.7c0.6 0.5 1.9 1.5 3.7 2.7 2.6 1.8 6.4 3.9 10.7 5.7 4.3 1.7 9.1 3 14 3q0.4 0 0.8 0c1.1-0.1 2.6-0.5 4.3-1.1 2.6-1 5.5-2.5 8.5-4 3-1.4 6.1-2.9 8.9-3.9 1.8-0.5 6.2-1.8 11.8-1.8 3.5 0 7.5 0.5 11.5 2 4.9 1.9 10.1 3.9 14.8 5.7 4.6 1.8 8.8 3.3 11.7 4.1 2.8 0.7 5.7 1.2 8.7 1.2 3.3 0 6.7-0.6 10.4-2.5 3.7-1.8 9-4.8 14.7-7.3 2.9-1.3 5.8-2.5 8.7-3.3 2.9-0.9 5.7-1.4 8.4-1.4q0.3 0 0.6 0c2.6 0.1 5.5 0.7 8.5 1.5 4.5 1.3 9.3 3.2 14.3 5.1 4.9 2 9.9 4 14.7 5.5 2.4 0.7 4.9 1 7.3 1 4.9 0 9.6-1.3 13.5-2.8 2-0.8 3.8-1.7 5.2-2.4 1.5-0.8 2.8-1.5 3.6-2q1.4-0.7 3.4-1.3c4.1-1.2 10.2-2.2 16.4-2.2 3.2 0 6.4 0.3 9.2 0.9 5 1.1 10.6 3.4 16 5.3 2.7 1 5.4 1.9 7.8 2.6 2.5 0.6 4.7 1 6.6 1q0.4 0 0.9 0c2.3-0.2 7.3-0.9 12.9-2.8 5.6-1.9 11.7-5 16-9.8l1.6 1.4c-4.7 5.2-11.1 8.4-16.9 10.4-5.8 2-11 2.7-13.5 2.9v-1.1 1.1q-0.5 0-1 0c-2.2 0-4.6-0.4-7.1-1.1-3.8-1-8-2.6-12.1-4.1-4.1-1.5-8.1-3-11.6-3.7-2.7-0.6-5.7-0.9-8.8-0.9-3.9 0-7.9 0.4-11.3 1-1.6 0.3-3.2 0.7-4.5 1.1-1.2 0.4-2.3 0.8-2.9 1.2-0.9 0.4-2.1 1.2-3.7 1.9-4.6 2.4-11.8 5.5-19.7 5.5-2.6 0-5.3-0.3-7.9-1.1-6.6-2-13.4-5-19.8-7.4-3.2-1.3-6.3-2.4-9.2-3.2-2.9-0.8-5.6-1.3-8-1.4q-0.3 0-0.5 0c-2.4 0-5 0.5-7.8 1.3-4.1 1.2-8.5 3.2-12.5 5.1-4.1 2-7.7 4-10.5 5.4-4.1 2-7.9 2.7-11.4 2.7-3.2 0-6.3-0.6-9.2-1.3-3.1-0.8-7.3-2.3-12-4.1-4.7-1.8-9.8-3.9-14.8-5.7-3.6-1.4-7.4-1.9-10.7-1.9-5.3 0-9.5 1.2-11.1 1.7-3.5 1.2-7.7 3.4-11.6 5.3-2 1-3.9 1.9-5.7 2.5-1.8 0.7-3.5 1.2-5.1 1.2q-0.4 0.1-0.8 0.1c-7 0-13.7-2.4-19.1-5.1-2.6-1.3-5-2.7-6.8-4-1.8-1.2-3.2-2.2-3.9-2.9z"/><path class="c" d="m1967.9-1819.3c0.6 0.5 1.9 1.5 3.7 2.7 2.6 1.8 6.4 3.9 10.7 5.7 4.3 1.7 9.1 3 14 3q0.4 0 0.8 0c1.1-0.1 2.6-0.5 4.3-1.1 2.6-1 5.5-2.5 8.5-4 3-1.5 6.1-2.9 8.9-3.9 1.8-0.5 6.2-1.8 11.8-1.8 3.5 0 7.5 0.5 11.5 2 4.9 1.9 10.1 3.9 14.8 5.7 4.6 1.8 8.8 3.3 11.7 4.1 2.8 0.7 5.7 1.2 8.7 1.2 3.3 0 6.7-0.6 10.4-2.5 3.7-1.8 9-4.8 14.7-7.3 2.9-1.3 5.8-2.5 8.7-3.3 2.9-0.8 5.7-1.4 8.4-1.4q0.3 0 0.6 0c2.6 0.1 5.5 0.7 8.5 1.5 4.5 1.3 9.3 3.2 14.3 5.1 4.9 2 9.9 4 14.7 5.5 2.4 0.8 4.9 1.1 7.3 1.1 4.9 0 9.6-1.3 13.5-2.9 2-0.8 3.8-1.7 5.2-2.4 1.5-0.8 2.8-1.5 3.6-2q1.4-0.7 3.4-1.3c4.1-1.2 10.2-2.2 16.4-2.2 3.2 0 6.4 0.3 9.2 0.9 5 1.1 10.6 3.4 16 5.3 2.7 1 5.4 1.9 7.8 2.6 2.5 0.6 4.7 1 6.6 1q0.5 0 0.9 0c2.3-0.2 7.3-0.9 12.9-2.8 5.6-1.9 11.7-5 16-9.8l1.6 1.4c-4.7 5.2-11.1 8.4-16.9 10.4-5.8 2-11 2.7-13.5 2.9q-0.5 0-1 0c-2.2 0-4.6-0.4-7.1-1.1-3.8-1-8-2.6-12.1-4.1-4.1-1.5-8.1-3-11.6-3.7-2.7-0.6-5.7-0.9-8.8-0.9-3.9 0-7.9 0.4-11.3 1-1.6 0.4-3.2 0.7-4.5 1.1-1.2 0.4-2.3 0.8-2.9 1.2-0.9 0.4-2.1 1.1-3.7 1.9-4.6 2.4-11.8 5.6-19.7 5.6-2.6 0-5.3-0.4-7.9-1.2-6.6-2-13.4-5-19.8-7.4-3.2-1.3-6.3-2.4-9.2-3.2-2.9-0.8-5.6-1.3-8-1.4q-0.2 0-0.5 0c-2.4 0-5 0.5-7.8 1.3-4.1 1.2-8.5 3.2-12.5 5.1-4.1 2-7.7 4-10.5 5.4-4.1 2-7.9 2.7-11.4 2.7-3.2 0-6.3-0.6-9.2-1.3-3.1-0.8-7.3-2.3-12-4.1-4.7-1.8-9.8-3.9-14.8-5.7-3.6-1.4-7.4-1.9-10.7-1.9-5.3 0-9.5 1.2-11.1 1.7-3.5 1.2-7.7 3.4-11.6 5.3-2 1-3.9 1.9-5.7 2.6-1.8 0.6-3.5 1.1-5.1 1.1q-0.4 0.1-0.8 0.1c-7 0-13.7-2.4-19.1-5.1-2.6-1.3-5-2.7-6.8-4-1.8-1.2-3.2-2.2-3.9-2.9z"/><path class="c" d="m1967.9-1811.9c0.6 0.5 1.9 1.5 3.7 2.7 2.6 1.8 6.4 3.9 10.7 5.7 4.3 1.7 9.2 3 14 3q0.4 0 0.8 0c1.1-0.1 2.6-0.5 4.3-1.1 2.6-1 5.5-2.5 8.5-4 3-1.4 6.1-2.9 8.9-3.9 1.8-0.5 6.2-1.8 11.8-1.8 3.6 0 7.5 0.5 11.5 2 4.9 1.9 10.1 3.9 14.8 5.7 4.6 1.8 8.8 3.4 11.7 4.1 2.8 0.7 5.7 1.2 8.7 1.2 3.3 0 6.7-0.6 10.4-2.5 3.7-1.8 9-4.8 14.7-7.3 2.9-1.3 5.8-2.5 8.7-3.3 2.9-0.9 5.7-1.4 8.4-1.4q0.3 0 0.6 0c2.6 0.1 5.5 0.7 8.5 1.5 4.5 1.3 9.3 3.2 14.3 5.1 4.9 2 9.9 4 14.7 5.5 2.4 0.7 4.9 1.1 7.3 1.1 4.9 0 9.6-1.4 13.5-2.9 2-0.8 3.8-1.7 5.2-2.4 1.5-0.8 2.8-1.5 3.6-2q1.4-0.7 3.4-1.3c4.1-1.2 10.2-2.2 16.4-2.2 3.2 0 6.4 0.3 9.2 0.9 5 1.1 10.6 3.4 16 5.3 2.7 1 5.4 1.9 7.8 2.5 2.5 0.7 4.7 1.1 6.6 1.1q0.4 0 0.9 0c2.3-0.2 7.3-0.9 12.9-2.8 5.6-1.9 11.7-5 16-9.8l1.6 1.4c-4.7 5.2-11.1 8.4-16.9 10.4-5.8 2-11 2.7-13.5 2.9v-1.1 1.1q-0.5 0-1 0c-2.2 0-4.6-0.4-7.1-1.1-3.8-1-8-2.6-12.1-4.1-4.1-1.5-8.1-3-11.6-3.7-2.7-0.6-5.7-0.9-8.8-0.9-3.9 0-7.9 0.4-11.3 1-1.6 0.4-3.2 0.7-4.5 1.1-1.2 0.4-2.3 0.8-2.9 1.2-0.9 0.5-2.1 1.1-3.7 1.9-4.6 2.4-11.8 5.6-19.7 5.6-2.6 0-5.3-0.4-7.9-1.2-6.6-2-13.4-5-19.8-7.4-3.2-1.3-6.3-2.4-9.2-3.2-2.9-0.8-5.6-1.3-8-1.4q-0.2 0-0.5 0c-2.4 0-5 0.5-7.8 1.3-4.1 1.2-8.5 3.1-12.5 5.1-4.1 2-7.7 4-10.5 5.4-4.1 2-7.9 2.7-11.4 2.7-3.2 0-6.3-0.6-9.2-1.3-3.1-0.8-7.3-2.3-12-4.1-4.7-1.8-9.8-3.9-14.8-5.7-3.6-1.4-7.4-1.9-10.7-1.9-5.3 0-9.5 1.2-11.1 1.7-3.5 1.2-7.7 3.4-11.6 5.3-2 1-3.9 1.9-5.7 2.5-1.8 0.7-3.5 1.2-5.1 1.2q-0.4 0.1-0.8 0.1c-7 0-13.7-2.4-19.1-5.1-2.6-1.3-5-2.7-6.8-4-1.8-1.2-3.2-2.2-3.9-2.8z"/><path class="c" d="m1967.9-1804.5c0.6 0.5 1.9 1.5 3.7 2.7 2.6 1.8 6.4 3.9 10.7 5.7 4.3 1.7 9.1 3 14 3q0.4 0 0.8 0c1.1-0.1 2.6-0.5 4.3-1.1 2.6-1 5.5-2.5 8.5-4 3-1.5 6.1-2.9 8.9-3.9 1.8-0.5 6.2-1.8 11.8-1.8 3.5 0 7.5 0.5 11.5 2 4.9 1.9 10.1 3.9 14.8 5.7 4.6 1.8 8.8 3.3 11.7 4.1 2.8 0.7 5.7 1.2 8.7 1.2 3.3 0 6.7-0.6 10.4-2.5 3.7-1.8 9-4.8 14.7-7.3 2.9-1.3 5.8-2.5 8.7-3.3 2.9-0.8 5.7-1.4 8.4-1.4q0.3 0 0.6 0c2.6 0.1 5.5 0.6 8.5 1.5 4.5 1.3 9.3 3.2 14.3 5.1 4.9 2 9.9 4 14.7 5.5 2.4 0.7 4.9 1.1 7.3 1.1 4.9 0 9.6-1.4 13.5-2.9 2-0.8 3.8-1.7 5.2-2.4 1.5-0.8 2.8-1.5 3.6-2q1.4-0.7 3.4-1.3c4.1-1.2 10.2-2.2 16.4-2.2 3.2 0 6.4 0.3 9.2 0.9 5 1.1 10.6 3.3 16 5.3 2.7 1 5.4 1.9 7.8 2.6 2.5 0.6 4.7 1 6.6 1q0.5 0 0.9 0c2.3-0.2 7.3-0.9 12.9-2.8 5.6-1.9 11.7-5 16-9.8l1.6 1.4c-4.7 5.2-11.1 8.4-16.9 10.4-5.8 2-11 2.7-13.5 2.9v-1.1 1.1q-0.5 0-1 0c-2.2 0-4.6-0.4-7.1-1.1-3.8-1-8-2.6-12.1-4.1-4.1-1.5-8.1-3-11.6-3.7-2.7-0.6-5.7-0.9-8.8-0.9-3.9 0-7.9 0.4-11.3 1.1-1.6 0.3-3.2 0.6-4.5 1-1.2 0.4-2.3 0.8-2.9 1.2-0.9 0.4-2.1 1.2-3.7 2-4.6 2.3-11.8 5.5-19.7 5.5-2.6 0-5.3-0.4-7.9-1.2-6.6-2.1-13.4-5-19.8-7.5-3.2-1.2-6.3-2.3-9.2-3.1-2.9-0.8-5.6-1.3-8-1.4q-0.3 0-0.5 0c-2.4 0-5 0.5-7.8 1.3-4.1 1.2-8.5 3.2-12.5 5.1-4.1 2-7.7 4-10.5 5.4-4.1 2-7.9 2.7-11.4 2.7-3.2 0-6.3-0.6-9.2-1.3-3.1-0.8-7.3-2.3-12-4.1-4.7-1.8-9.8-3.9-14.8-5.7-3.6-1.4-7.4-1.9-10.7-1.9-5.3 0-9.5 1.2-11.1 1.7-3.5 1.2-7.7 3.4-11.6 5.3-2 1-3.9 1.9-5.7 2.5-1.8 0.7-3.5 1.2-5.1 1.2q-0.4 0.1-0.8 0.1c-7 0-13.7-2.4-19.1-5.1-2.6-1.3-5-2.7-6.8-4-1.8-1.2-3.2-2.2-3.9-2.9z"/><path class="c" d="m1967.9-1797.1c0.6 0.5 1.9 1.5 3.7 2.7 2.6 1.8 6.4 3.9 10.7 5.7 4.3 1.7 9.1 3 14 3q0.4 0 0.8 0c1.1-0.1 2.6-0.5 4.3-1.1 2.6-1 5.5-2.5 8.5-4 3-1.5 6.1-2.9 8.9-3.9 1.8-0.5 6.2-1.8 11.8-1.8 3.5 0 7.5 0.5 11.5 2 4.9 1.9 10.1 3.9 14.8 5.7 4.6 1.8 8.8 3.3 11.7 4.1 2.8 0.7 5.7 1.2 8.7 1.2 3.3 0 6.7-0.6 10.4-2.5 3.7-1.8 9-4.8 14.7-7.3 2.9-1.3 5.8-2.5 8.7-3.3 2.9-0.9 5.7-1.4 8.4-1.4q0.3 0 0.6 0c2.6 0.1 5.5 0.7 8.5 1.5 4.5 1.3 9.3 3.2 14.3 5.1 4.9 2 9.9 4 14.7 5.5 2.4 0.7 4.9 1.1 7.3 1.1 4.9 0 9.6-1.4 13.5-2.9 2-0.8 3.8-1.7 5.2-2.4 1.5-0.8 2.8-1.5 3.6-2q1.4-0.7 3.4-1.3c4.1-1.2 10.2-2.2 16.4-2.2 3.2 0 6.4 0.3 9.2 0.9 5 1.1 10.6 3.4 16 5.3 2.7 1 5.4 1.9 7.8 2.6 2.5 0.6 4.7 1 6.6 1q0.4 0 0.9 0c2.3-0.1 7.3-0.9 12.9-2.8 5.6-1.9 11.7-5 16-9.8l1.6 1.4c-4.7 5.2-11.1 8.4-16.9 10.4-5.8 2-11 2.7-13.5 2.9v-1.1 1.1q-0.5 0-1 0c-2.2 0-4.6-0.4-7.1-1.1-3.8-1-8-2.6-12.1-4.1-4.1-1.5-8.1-3-11.6-3.7-2.7-0.6-5.7-0.9-8.8-0.9-3.9 0-7.9 0.4-11.3 1-1.6 0.4-3.2 0.7-4.5 1.1-1.2 0.4-2.3 0.8-2.9 1.2-0.9 0.5-2.1 1.2-3.7 1.9-4.6 2.4-11.8 5.6-19.7 5.6-2.6 0-5.3-0.4-7.9-1.2-6.6-2-13.4-5-19.8-7.4-3.2-1.3-6.3-2.4-9.2-3.2-2.9-0.8-5.6-1.3-8-1.4q-0.2 0-0.5 0c-2.4 0-5 0.5-7.8 1.3-4.1 1.2-8.5 3.1-12.5 5.1-4.1 2-7.7 4-10.5 5.4-4.1 2-7.9 2.7-11.4 2.7-3.2 0-6.3-0.6-9.2-1.3-3.1-0.8-7.3-2.3-12-4.1-4.7-1.8-9.8-3.9-14.8-5.7-3.6-1.4-7.4-1.9-10.7-1.9-5.3 0-9.5 1.2-11.1 1.7-3.5 1.2-7.7 3.4-11.6 5.3-2 1-3.9 1.9-5.7 2.6-1.8 0.6-3.5 1.1-5.1 1.1q-0.4 0.1-0.8 0.1c-7-0.1-13.7-2.4-19.1-5.1-2.6-1.3-5-2.7-6.8-4-1.8-1.2-3.2-2.2-3.9-2.8z"/><path fill-rule="evenodd" class="d" d="m2187.8-1885.7c-47.9 0-91.3 0-91.3 0v53.6h-66.4v-173.1c0 0 141.4 0 156.4 0 6.9 0 49.5 7.4 56.2 53.5 5.6 38.2-30.9 66-54.9 66zm24.4-59.9c0-25.6-33.7-46.3-75.2-46.3-41.5 0-75.2 20.7-75.2 46.3 0 25.6 33.7 46.4 75.2 46.4 41.5 0 75.2-20.8 75.2-46.4z"/><g clip-path="url(#cp6)"><path class="d" d="m2058-1947h162.9v4.2h-162.9"/><path class="d" d="m2138.7-1997.7v105.6h-4.2v-105.6"/><path class="d" d="m2098.2-1989.3c0.3 0.5 0.7 1.1 1.4 1.8 1.2 1.2 3.2 2.5 5.6 3.8 3.7 1.9 8.5 3.7 14 5 5.4 1.4 11.4 2.2 17.4 2.4q0.5 0 1.1 0c7.9 0 16-2.2 22.8-4.8 6.8-2.6 12.3-5.7 15.2-7.5l2.2 3.6c-3.1 1.9-8.8 5.1-15.9 7.8-7.1 2.7-15.7 5.1-24.3 5.1q-0.6 0-1.2 0c-9.7-0.3-19.2-2.3-26.7-5.1-3.8-1.3-7.1-2.9-9.7-4.6q-1.9-1.3-3.4-2.7c-0.9-1-1.7-2-2.2-3.1z"/><path class="d" d="m2078.8-1977h-0.1 0.1-0.1 0.1c0 0 0.2 0.1 0.4 0.4 0.4 0.4 1.1 1.1 2.1 2 3.3 2.9 9.8 7.6 19.1 11.5 9.3 3.9 21.5 7.1 36.2 7.1 8.6 0 19.7-1.6 30.4-5.1 10.8-3.6 21.2-9.1 28.7-16.8l2.9 2.9c-8.1 8.4-19.1 14.2-30.3 17.9-11.2 3.7-22.6 5.3-31.7 5.3-18.7 0-33.6-5-43.9-10.3-5.1-2.7-9.2-5.4-12.1-7.7q-2.1-1.7-3.4-2.9c-0.5-0.4-0.8-0.8-1.1-1.1q-0.2-0.3-0.4-0.5-0.2-0.2-0.4-0.5z"/><path class="d" d="m2176-1901.5c-0.3-0.5-0.7-1.1-1.4-1.8-1.2-1.2-3.1-2.5-5.6-3.8-3.7-1.9-8.5-3.7-13.9-5-5.5-1.4-11.5-2.2-17.5-2.4q-0.5 0-1 0c-8 0-16.1 2.2-22.9 4.8-6.8 2.6-12.4 5.7-15.2 7.5l-2.1-3.6c3-1.9 8.7-5.1 15.8-7.8 7.2-2.7 15.7-5.1 24.4-5.1q0.5 0 1.1 0c9.7 0.3 19.2 2.3 26.7 5.1 3.8 1.3 7.1 2.9 9.7 4.7q2 1.2 3.4 2.6c1 1 1.7 2 2.2 3.1z"/><path class="d" d="m2195.4-1913.8c0 0-0.2-0.2-0.4-0.4-0.4-0.5-1.1-1.2-2.1-2-3.4-3-9.9-7.6-19.2-11.5-9.3-4-21.4-7.1-36-7.1-8.7 0-19.8 1.6-30.5 5.1-10.8 3.6-21.2 9.1-28.6 16.8l-3-2.9c8.1-8.4 19.1-14.2 30.3-17.9 11.2-3.7 22.6-5.3 31.8-5.3 18.7 0 33.5 5 43.8 10.3 5.2 2.7 9.2 5.4 12.1 7.7 1.5 1.1 2.6 2.1 3.5 2.9q0.6 0.7 1 1.2c0.2 0.1 0.3 0.3 0.4 0.4 0.2 0.2 0.3 0.3 0.4 0.5z"/></g><path fill-rule="evenodd" class="d" d="m2011.6-1696.2l9.5-67.3h25.9q16.7 0 23.9 5.7 7.2 5.7 5.5 17.6-1.4 10-10 15.8-8.7 5.8-22.3 5.8h-4.9l-3.2 22.4zm31.9-52.9l-2.1 14.9q5.6-0.1 8.5-1.9 2.9-1.7 3.4-5.5 0.5-3.7-1.7-5.6-2.3-1.9-7.2-1.9z"/><path fill-rule="evenodd" class="d" d="m2076.3-1696.2l9.5-67.3h28q14.3 0 21.7 5.6 7.4 5.6 6.1 15.2-0.9 5.9-5.1 10-4.3 4.2-12 6.7l13.1 29.8h-25.9l-7.3-26-3.7 26zm31.9-53.3l-2.2 16q5-0.1 7.5-2 2.6-1.9 3.1-6 0.6-4-1.3-6-1.9-2-6.1-2z"/><path fill-rule="evenodd" class="d" d="m2145-1729.8q2.4-16.7 12.2-25.8 9.9-9.2 25.5-9.2 15.5 0 22.7 9.1 7.3 9.2 4.9 25.9-2.3 16.7-12.1 25.8-9.8 9.1-25.4 9.1-15.6 0-22.9-9.1-7.2-9.2-4.9-25.8zm24.7-0.5q-1.4 10.6-0.2 14.4 1.3 3.8 5.8 3.8 4.4 0.1 6.7-3.7 2.3-3.9 3.8-14.5 1.5-10.6 0.3-14.4-1.3-3.8-5.7-3.8-4.5 0-6.8 3.9-2.4 3.8-3.9 14.3z"/><path class="d" d="m2212.6-1696.2l9.5-67.3h43.3l-2.4 16.3h-18.9l-1.3 9.8h16.5l-2.2 15.8h-16.6l-3.5 25.4z"/><path class="c" d="m2262.2-1696.2l9.5-67.3h43.4l-2.3 16.3h-18.9l-1.2 8.6h17l-2.2 15.8h-17l-1.3 9.2h18.9l-2.5 17.4z"/><path class="c" d="m2314.2-1696.2l9.5-67.3h24.3l8.4 35.4 5-35.4h22.2l-9.5 67.3h-24l-8.8-33.7-4.8 33.7z"/><text style="transform:matrix(4,0,0,4,1867.019,-1639.926)" ><tspan x="0" y="0" class="ap" dx="0 1 1 1 1 1 1 1 1 1 1 1 1 1 1 1 1 1" >ENGINEERING L.L.C
</tspan></text><text style="transform:matrix(4,0,0,4,1862.91,-1609.566)" ><tspan x="0" y="0" class="aq" dx="0 4 4 4 4 4 4 4 4 4 4 4 4" >PROFESSIONAL
</tspan></text><text style="transform:matrix(4,0,0,4,2226.437,-1609.566)" ><tspan x="0" y="0" class="ar" dx="0 0 0 0 0 0 0 0 0 0" >ENGINEERS
</tspan></text><text style="transform:matrix(4,0,0,4,2134.227,-2237.207)" ><tspan x="-98.7" y="0" class="at">WHITE PVC STICKER
</tspan><tspan x="-58.2" y="22.2" class="at">6.4 x 6.4 cm
</tspan></text><path class="c" d="m2410.9-1581.2c-55.7 102.5-164.3 172.1-289.1 172.1-124.2 0-233.8-71.5-289.8-173.1z"/><text style="transform:matrix(4,0,0,4,1999.988,-1541.867)" ><tspan x="0" y="0" class="au">www.promistcool.com
</tspan><tspan x="0" y="11" class="au" dx="0 0 0 0 0 0 0 0 0 0 0 0 0 0 0 0 0 0" >www.profeneng.com
</tspan></text><path fill-rule="evenodd" class="a" d="m1981.8-1537.8c-6.1 0-11-4.9-11-11 0-6.1 4.9-11.1 11-11.1 6.1 0 11.1 5 11.1 11.1 0 6.1-5 11-11.1 11zm0-20.3c-5.1 0-9.3 4.2-9.3 9.3 0 5.1 4.2 9.3 9.3 9.3 5.2 0 9.3-4.2 9.3-9.3 0-5.1-4.1-9.3-9.3-9.3z"/><path class="a" d="m1982.7-1538.7h-1.8v-20.2h1.8z"/><path class="a" d="m1992-1547.9h-20.3v-1.8h20.3z"/><path class="a" d="m1980.6-1538c-0.2-0.1-4.9-3.9-4.9-10.8 0-6.9 4.7-10.7 4.9-10.8l1.1 1.4c0 0-4.2 3.4-4.2 9.4 0 6 4.2 9.4 4.2 9.4z"/><path class="a" d="m1983-1538l-1.1-1.4c0.1 0 4.3-3.4 4.3-9.4 0-6-4.2-9.4-4.3-9.4l1.1-1.4c0.2 0.1 5 3.9 5 10.8 0 6.9-4.8 10.7-5 10.8z"/><path class="a" d="m1981.8-1551.2c-6.7 0-8.5-3.6-8.6-3.7l1.6-0.8-0.8 0.4 0.8-0.4c0 0.1 1.5 2.7 7 2.7 5.5 0 7-2.6 7.1-2.7l1.6 0.8c-0.1 0.1-2 3.7-8.7 3.7z"/><path class="a" d="m1974.8-1541.9l-1.6-0.8c0.1-0.1 1.9-3.7 8.6-3.7 6.7 0 8.6 3.6 8.7 3.7l-1.6 0.8c-0.1-0.1-1.6-2.8-7.1-2.8-5.5 0-7 2.7-7 2.8z"/><path fill-rule="evenodd" class="a" d="m1981.7-1493.5c-6.1 0-11-4.9-11-11 0-6.1 4.9-11.1 11-11.1 6.1 0 11.1 5 11.1 11.1 0 6.1-5 11-11.1 11zm0-20.3c-5.1 0-9.3 4.1-9.3 9.3 0 5.1 4.2 9.2 9.3 9.2 5.2 0 9.3-4.1 9.3-9.2 0-5.2-4.1-9.3-9.3-9.3z"/><path class="a" d="m1982.6-1494.4h-1.8v-20.3h1.8z"/><path class="a" d="m1991.9-1503.7h-20.3v-1.7h20.3z"/><path class="a" d="m1980.5-1493.7c-0.2-0.2-4.9-4-4.9-10.8 0-6.9 4.7-10.7 4.9-10.9l1.1 1.4c0 0.1-4.2 3.5-4.2 9.5 0 6 4.2 9.3 4.2 9.4z"/><path class="a" d="m1982.9-1493.7l-1.1-1.4c0.1-0.1 4.3-3.4 4.3-9.4 0-6.1-4.2-9.4-4.3-9.5l1.1-1.4c0.2 0.2 5 4 5 10.9 0 6.8-4.8 10.6-5 10.8z"/><path class="a" d="m1981.7-1506.9c-6.7 0-8.5-3.6-8.6-3.8l1.6-0.8-0.8 0.4 0.8-0.4c0 0.1 1.5 2.8 7 2.8 5.5 0 7-2.7 7.1-2.8l1.6 0.8c-0.1 0.2-2 3.8-8.7 3.8z"/><path class="a" d="m1974.7-1497.6l-1.6-0.8c0.1-0.2 1.9-3.8 8.6-3.8 6.7 0 8.6 3.6 8.7 3.8l-1.6 0.8c-0.1-0.1-1.6-2.8-7.1-2.8-5.5 0-7 2.7-7 2.8z"/><path class="ao" d="m2451.1-1737.9c0 181.6-147.3 328.8-328.9 328.8-181.6 0-328.8-147.2-328.8-328.8 0-181.6 147.2-328.9 328.8-328.9 181.6 0 328.9 147.3 328.9 328.9z"/></svg>